<?xml version="1.0" encoding="utf-8"?>
<!-- Generator: Adobe Illustrator 12.0.1, SVG Export Plug-In . SVG Version: 6.00 Build 51448)  -->
<!DOCTYPE svg PUBLIC "-//W3C//DTD SVG 1.1//EN" "http://www.w3.org/Graphics/SVG/1.1/DTD/svg11.dtd" [
	<!ENTITY ns_svg "http://www.w3.org/2000/svg">
	<!ENTITY ns_xlink "http://www.w3.org/1999/xlink">
]>
<svg  version="1.1" id="Layer_1" xmlns="&ns_svg;" xmlns:xlink="&ns_xlink;" width="15.719" height="15.719"
	 viewBox="0 0 15.719 15.719" overflow="visible" enable-background="new 0 0 15.719 15.719" xml:space="preserve">
<g>
	<g>
		<defs>
			<circle id="XMLID_1_" cx="7.859" cy="7.859" r="7.484"/>
		</defs>
		<clipPath id="XMLID_3_">
			<use xlink:href="#XMLID_1_" />
		</clipPath>
		<polygon clip-path="url(#XMLID_3_)" fill="#A61E22" points="0.375,11.68 5.102,15.344 0.375,15.344 		"/>
		<polygon clip-path="url(#XMLID_3_)" fill="#A61E22" points="0.375,11.051 5.914,15.344 5.102,15.344 0.375,11.68 		"/>
		<polygon clip-path="url(#XMLID_3_)" fill="#A81E22" points="0.375,10.422 6.723,15.344 5.914,15.344 0.375,11.051 		"/>
		<polygon clip-path="url(#XMLID_3_)" fill="#A91E22" points="0.375,9.797 7.531,15.344 6.723,15.344 0.375,10.422 		"/>
		<polygon clip-path="url(#XMLID_3_)" fill="#AA1E22" points="0.375,9.168 8.344,15.344 7.531,15.344 0.375,9.797 		"/>
		<polygon clip-path="url(#XMLID_3_)" fill="#AC1E23" points="0.375,8.539 9.152,15.344 8.344,15.344 0.375,9.168 		"/>
		<polygon clip-path="url(#XMLID_3_)" fill="#AD1E23" points="0.375,7.914 9.961,15.344 9.152,15.344 0.375,8.539 		"/>
		<polygon clip-path="url(#XMLID_3_)" fill="#AF1F23" points="0.375,7.285 10.773,15.344 9.961,15.344 0.375,7.914 		"/>
		<polygon clip-path="url(#XMLID_3_)" fill="#B01F23" points="0.375,6.656 11.582,15.344 10.773,15.344 0.375,7.285 		"/>
		<polygon clip-path="url(#XMLID_3_)" fill="#B11F24" points="0.375,6.031 12.395,15.344 11.582,15.344 0.375,6.656 		"/>
		<polygon clip-path="url(#XMLID_3_)" fill="#B31F24" points="0.375,5.402 13.203,15.344 12.395,15.344 0.375,6.031 		"/>
		<polygon clip-path="url(#XMLID_3_)" fill="#B41F24" points="0.375,4.773 14.012,15.344 13.203,15.344 0.375,5.402 		"/>
		<polygon clip-path="url(#XMLID_3_)" fill="#B51F24" points="0.375,4.148 14.82,15.344 14.012,15.344 0.375,4.773 		"/>
		<polygon clip-path="url(#XMLID_3_)" fill="#B61F24" points="0.375,3.52 15.344,15.121 15.344,15.258 15.277,15.344 14.82,15.344 
			0.375,4.148 		"/>
		<polygon clip-path="url(#XMLID_3_)" fill="#B82025" points="0.375,2.891 15.344,14.492 15.344,15.121 0.375,3.52 		"/>
		<polygon clip-path="url(#XMLID_3_)" fill="#B92025" points="0.375,2.266 15.344,13.863 15.344,14.492 0.375,2.891 		"/>
		<polygon clip-path="url(#XMLID_3_)" fill="#BA2025" points="0.375,1.637 15.344,13.238 15.344,13.863 0.375,2.266 		"/>
		<polygon clip-path="url(#XMLID_3_)" fill="#BB2025" points="0.375,1.008 15.344,12.609 15.344,13.238 0.375,1.637 		"/>
		<polygon clip-path="url(#XMLID_3_)" fill="#BC2025" points="0.375,0.461 0.414,0.41 15.344,11.98 15.344,12.609 0.375,1.008 		"/>
		<polygon clip-path="url(#XMLID_3_)" fill="#BD2025" points="0.414,0.41 0.441,0.375 1.176,0.375 15.344,11.355 15.344,11.98 		"/>
		<polygon clip-path="url(#XMLID_3_)" fill="#BF2025" points="1.988,0.375 15.344,10.727 15.344,11.355 1.176,0.375 		"/>
		<polygon clip-path="url(#XMLID_3_)" fill="#BF2026" points="2.797,0.375 15.344,10.098 15.344,10.727 1.988,0.375 		"/>
		<polygon clip-path="url(#XMLID_3_)" fill="#C02026" points="3.605,0.375 15.344,9.473 15.344,10.098 2.797,0.375 		"/>
		<polygon clip-path="url(#XMLID_3_)" fill="#C22026" points="4.418,0.375 15.344,8.844 15.344,9.473 3.605,0.375 		"/>
		<polygon clip-path="url(#XMLID_3_)" fill="#C22026" points="5.227,0.375 15.344,8.215 15.344,8.844 4.418,0.375 		"/>
		<polygon clip-path="url(#XMLID_3_)" fill="#C32026" points="6.035,0.375 15.344,7.59 15.344,8.215 5.227,0.375 		"/>
		<polygon clip-path="url(#XMLID_3_)" fill="#C42026" points="6.848,0.375 15.344,6.961 15.344,7.59 6.035,0.375 		"/>
		<polygon clip-path="url(#XMLID_3_)" fill="#C52026" points="7.656,0.375 15.344,6.332 15.344,6.961 6.848,0.375 		"/>
		<polygon clip-path="url(#XMLID_3_)" fill="#C52026" points="8.465,0.375 15.344,5.703 15.344,6.332 7.656,0.375 		"/>
		<polygon clip-path="url(#XMLID_3_)" fill="#C72026" points="9.277,0.375 15.344,5.078 15.344,5.703 8.465,0.375 		"/>
		<polygon clip-path="url(#XMLID_3_)" fill="#C72026" points="10.086,0.375 15.344,4.449 15.344,5.078 9.277,0.375 		"/>
		<polygon clip-path="url(#XMLID_3_)" fill="#C72027" points="10.895,0.375 15.344,3.82 15.344,4.449 10.086,0.375 		"/>
		<polygon clip-path="url(#XMLID_3_)" fill="#C82026" points="11.707,0.375 15.344,3.195 15.344,3.82 10.895,0.375 		"/>
		<polygon clip-path="url(#XMLID_3_)" fill="#C92027" points="12.516,0.375 15.344,2.566 15.344,3.195 11.707,0.375 		"/>
		<polygon clip-path="url(#XMLID_3_)" fill="#C92027" points="13.324,0.375 15.344,1.938 15.344,2.566 12.516,0.375 		"/>
		<polygon clip-path="url(#XMLID_3_)" fill="#C92027" points="15.344,1.938 13.328,0.375 15.344,0.375 		"/>
	</g>
	<path fill="#AEADAE" d="M14.969,7.859c0,3.92-3.189,7.109-7.109,7.109S0.75,11.779,0.75,7.859S3.939,0.75,7.859,0.75
		S14.969,3.939,14.969,7.859z M7.859,0C3.525,0,0,3.526,0,7.859c0,4.333,3.525,7.859,7.859,7.859s7.859-3.526,7.859-7.859
		C15.719,3.526,12.193,0,7.859,0z"/>
</g>
<g>
	<path fill="#FFFFFF" d="M8.799,4.274v7.601H7.754V6.474H6.005V5.715c0.483-0.011,1.716-0.044,1.991-1.441H8.799z"/>
</g>
</svg>
