<?xml version="1.0" encoding="utf-8"?>
<!-- Generator: Adobe Illustrator 12.0.1, SVG Export Plug-In  -->
<!DOCTYPE svg PUBLIC "-//W3C//DTD SVG 1.1//EN" "http://www.w3.org/Graphics/SVG/1.1/DTD/svg11.dtd" [
	<!ENTITY ns_flows "http://ns.adobe.com/Flows/1.0/">
	<!ENTITY ns_svg "http://www.w3.org/2000/svg">
	<!ENTITY ns_xlink "http://www.w3.org/1999/xlink">
]>
<svg  version="1.1" xmlns="&ns_svg;" xmlns:xlink="&ns_xlink;" xmlns:a="http://ns.adobe.com/AdobeSVGViewerExtensions/3.0/"
	 width="16" height="17" viewBox="-0.229 -0.981 16 17" enable-background="new -0.229 -0.981 16 17" xml:space="preserve">
<defs>
</defs>
<g>
	<defs>
		<circle id="XMLID_6_" cx="7.86" cy="7.859" r="7.485"/>
	</defs>
	<clipPath id="XMLID_9_">
		<use xlink:href="#XMLID_6_" />
	</clipPath>
	<polygon clip-path="url(#XMLID_9_)" fill="#A61E22" points="0.375,10.797 4.797,15.344 0.375,15.344 	"/>
	<polygon clip-path="url(#XMLID_9_)" fill="#A61E22" points="0.375,10.09 5.484,15.344 4.797,15.344 0.375,10.797 	"/>
	<polygon clip-path="url(#XMLID_9_)" fill="#A81E22" points="0.375,9.383 6.172,15.344 5.484,15.344 0.375,10.09 	"/>
	<polygon clip-path="url(#XMLID_9_)" fill="#A91E22" points="0.375,8.676 6.855,15.344 6.172,15.344 0.375,9.383 	"/>
	<polygon clip-path="url(#XMLID_9_)" fill="#AA1E22" points="0.375,7.973 7.543,15.344 6.855,15.344 0.375,8.676 	"/>
	<polygon clip-path="url(#XMLID_9_)" fill="#AC1E23" points="0.375,7.266 8.23,15.344 7.543,15.344 0.375,7.973 	"/>
	<polygon clip-path="url(#XMLID_9_)" fill="#AD1E23" points="0.375,6.559 8.914,15.344 8.23,15.344 0.375,7.266 	"/>
	<polygon clip-path="url(#XMLID_9_)" fill="#AF1F23" points="0.375,5.852 9.602,15.344 8.914,15.344 0.375,6.559 	"/>
	<polygon clip-path="url(#XMLID_9_)" fill="#B01F23" points="0.375,5.145 10.289,15.344 9.602,15.344 0.375,5.852 	"/>
	<polygon clip-path="url(#XMLID_9_)" fill="#B11F24" points="0.375,4.441 10.977,15.344 10.289,15.344 0.375,5.145 	"/>
	<polygon clip-path="url(#XMLID_9_)" fill="#B31F24" points="0.375,3.734 11.664,15.344 10.977,15.344 0.375,4.441 	"/>
	<polygon clip-path="url(#XMLID_9_)" fill="#B41F24" points="0.375,3.027 12.348,15.344 11.664,15.344 0.375,3.734 	"/>
	<polygon clip-path="url(#XMLID_9_)" fill="#B51F24" points="0.375,2.32 13.035,15.344 12.348,15.344 0.375,3.027 	"/>
	<polygon clip-path="url(#XMLID_9_)" fill="#B61F24" points="0.375,1.613 13.723,15.344 13.035,15.344 0.375,2.32 	"/>
	<polygon clip-path="url(#XMLID_9_)" fill="#B82025" points="0.375,0.91 14.41,15.344 13.723,15.344 0.375,1.613 	"/>
	<polygon clip-path="url(#XMLID_9_)" fill="#B92025" points="0.375,0.844 0.695,0.531 14.984,15.23 14.863,15.344 14.41,15.344 
		0.375,0.91 	"/>
	<polygon clip-path="url(#XMLID_9_)" fill="#BA2025" points="0.695,0.531 0.859,0.375 1.227,0.375 15.336,14.887 14.984,15.23 	"/>
	<polygon clip-path="url(#XMLID_9_)" fill="#BB2025" points="1.914,0.375 15.344,14.188 15.344,14.875 15.336,14.887 1.227,0.375 	
		"/>
	<polygon clip-path="url(#XMLID_9_)" fill="#BC2025" points="2.602,0.375 15.344,13.48 15.344,14.188 1.914,0.375 	"/>
	<polygon clip-path="url(#XMLID_9_)" fill="#BD2025" points="3.289,0.375 15.344,12.777 15.344,13.48 2.602,0.375 	"/>
	<polygon clip-path="url(#XMLID_9_)" fill="#BF2025" points="3.977,0.375 15.344,12.07 15.344,12.777 3.289,0.375 	"/>
	<polygon clip-path="url(#XMLID_9_)" fill="#BF2026" points="4.66,0.375 15.344,11.363 15.344,12.07 3.977,0.375 	"/>
	<polygon clip-path="url(#XMLID_9_)" fill="#C02026" points="5.348,0.375 15.344,10.656 15.344,11.363 4.66,0.375 	"/>
	<polygon clip-path="url(#XMLID_9_)" fill="#C22026" points="6.035,0.375 15.344,9.953 15.344,10.656 5.348,0.375 	"/>
	<polygon clip-path="url(#XMLID_9_)" fill="#C22026" points="6.723,0.375 15.344,9.246 15.344,9.953 6.035,0.375 	"/>
	<polygon clip-path="url(#XMLID_9_)" fill="#C32026" points="7.406,0.375 15.344,8.539 15.344,9.246 6.723,0.375 	"/>
	<polygon clip-path="url(#XMLID_9_)" fill="#C42026" points="8.094,0.375 15.344,7.832 15.344,8.539 7.406,0.375 	"/>
	<polygon clip-path="url(#XMLID_9_)" fill="#C52026" points="8.781,0.375 15.344,7.125 15.344,7.832 8.094,0.375 	"/>
	<polygon clip-path="url(#XMLID_9_)" fill="#C52026" points="9.469,0.375 15.344,6.422 15.344,7.125 8.781,0.375 	"/>
	<polygon clip-path="url(#XMLID_9_)" fill="#C72026" points="10.152,0.375 15.344,5.715 15.344,6.422 9.469,0.375 	"/>
	<polygon clip-path="url(#XMLID_9_)" fill="#C72026" points="10.84,0.375 15.344,5.008 15.344,5.715 10.152,0.375 	"/>
	<polygon clip-path="url(#XMLID_9_)" fill="#C72027" points="11.527,0.375 15.344,4.301 15.344,5.008 10.84,0.375 	"/>
	<polygon clip-path="url(#XMLID_9_)" fill="#C82026" points="12.215,0.375 15.344,3.598 15.344,4.301 11.527,0.375 	"/>
	<polygon clip-path="url(#XMLID_9_)" fill="#C92027" points="12.898,0.375 15.344,2.891 15.344,3.598 12.215,0.375 	"/>
	<polygon clip-path="url(#XMLID_9_)" fill="#C92027" points="13.586,0.375 15.344,2.184 15.344,2.891 12.898,0.375 	"/>
	<polygon clip-path="url(#XMLID_9_)" fill="#C92027" points="15.344,2.184 13.586,0.375 15.344,0.375 	"/>
</g>
<path fill="#AEADAE" d="M14.97,7.859c0,3.92-3.189,7.109-7.109,7.109c-3.921,0-7.11-3.189-7.11-7.109S3.939,0.75,7.86,0.75
	C11.78,0.75,14.97,3.939,14.97,7.859z M7.86,0C3.526,0,0,3.526,0,7.859c0,4.333,3.526,7.859,7.86,7.859
	c4.333,0,7.859-3.526,7.859-7.859C15.72,3.526,12.193,0,7.86,0z"/>
<path fill="#FFFFFF" d="M9.568,5.933c-0.011-0.154-0.021-0.33-0.143-0.572C9.052,4.635,8.359,4.635,8.183,4.635
	c-0.451,0-1.045,0.11-1.463,0.902C6.334,6.252,6.302,7,6.269,7.594C6.379,7.418,6.5,7.198,6.841,6.956
	c0.517-0.374,1.056-0.451,1.44-0.451c1.397,0,2.432,1.012,2.432,2.562c0,1.453-0.99,2.541-2.586,2.541
	c-1.198,0-2.002-0.571-2.441-1.539C5.521,9.694,5.279,9.024,5.279,7.737c0-1.243,0.264-2.541,1.209-3.355
	c0.594-0.517,1.232-0.616,1.717-0.616c1.43,0,2.232,0.902,2.354,2.101L9.568,5.933z M8.149,7.418c-0.868,0-1.616,0.627-1.616,1.617
	c0,0.78,0.473,1.683,1.605,1.683c0.913,0,1.551-0.671,1.551-1.65C9.689,8.034,9.019,7.418,8.149,7.418z"/>
</svg>
