<?xml version="1.0" encoding="utf-8"?>
<!-- Generator: Adobe Illustrator 12.0.1, SVG Export Plug-In  -->
<!DOCTYPE svg PUBLIC "-//W3C//DTD SVG 1.1//EN" "http://www.w3.org/Graphics/SVG/1.1/DTD/svg11.dtd" [
	<!ENTITY ns_flows "http://ns.adobe.com/Flows/1.0/">
	<!ENTITY ns_svg "http://www.w3.org/2000/svg">
	<!ENTITY ns_xlink "http://www.w3.org/1999/xlink">
]>
<svg  version="1.1" xmlns="&ns_svg;" xmlns:xlink="&ns_xlink;" xmlns:a="http://ns.adobe.com/AdobeSVGViewerExtensions/3.0/"
	 width="16" height="17" viewBox="-0.229 -0.682 16 17" enable-background="new -0.229 -0.682 16 17" xml:space="preserve">
<defs>
</defs>
<g>
	<defs>
		<circle id="XMLID_6_" cx="7.86" cy="7.859" r="7.485"/>
	</defs>
	<clipPath id="XMLID_9_">
		<use xlink:href="#XMLID_6_" />
	</clipPath>
	<polygon clip-path="url(#XMLID_9_)" fill="#A61E22" points="0.375,10.991 3.77,15.343 0.375,15.343 	"/>
	<polygon clip-path="url(#XMLID_9_)" fill="#A61E22" points="0.375,10.163 4.418,15.343 3.77,15.343 0.375,10.991 	"/>
	<polygon clip-path="url(#XMLID_9_)" fill="#A81E22" points="0.375,9.335 5.062,15.343 4.418,15.343 0.375,10.163 	"/>
	<polygon clip-path="url(#XMLID_9_)" fill="#A91E22" points="0.375,8.507 5.711,15.343 5.062,15.343 0.375,9.335 	"/>
	<polygon clip-path="url(#XMLID_9_)" fill="#AA1E22" points="0.375,7.679 6.359,15.343 5.711,15.343 0.375,8.507 	"/>
	<polygon clip-path="url(#XMLID_9_)" fill="#AC1E23" points="0.375,6.851 7.004,15.343 6.359,15.343 0.375,7.679 	"/>
	<polygon clip-path="url(#XMLID_9_)" fill="#AD1E23" points="0.375,6.019 7.652,15.343 7.004,15.343 0.375,6.851 	"/>
	<polygon clip-path="url(#XMLID_9_)" fill="#AF1F23" points="0.375,5.19 8.297,15.343 7.652,15.343 0.375,6.019 	"/>
	<polygon clip-path="url(#XMLID_9_)" fill="#B01F23" points="0.375,4.362 8.945,15.343 8.297,15.343 0.375,5.19 	"/>
	<polygon clip-path="url(#XMLID_9_)" fill="#B11F24" points="0.375,3.534 9.594,15.343 8.945,15.343 0.375,4.362 	"/>
	<polygon clip-path="url(#XMLID_9_)" fill="#B31F24" points="0.375,2.706 10.238,15.343 9.594,15.343 0.375,3.534 	"/>
	<polygon clip-path="url(#XMLID_9_)" fill="#B41F24" points="0.375,1.878 10.887,15.343 10.238,15.343 0.375,2.706 	"/>
	<polygon clip-path="url(#XMLID_9_)" fill="#B51F24" points="0.375,1.05 11.531,15.343 10.887,15.343 0.375,1.878 	"/>
	<polygon clip-path="url(#XMLID_9_)" fill="#B61F24" points="0.375,0.456 0.477,0.374 0.496,0.374 12.18,15.343 11.531,15.343 
		0.375,1.05 	"/>
	<polygon clip-path="url(#XMLID_9_)" fill="#B82025" points="1.145,0.374 12.828,15.343 12.18,15.343 0.496,0.374 	"/>
	<polygon clip-path="url(#XMLID_9_)" fill="#B92025" points="1.789,0.374 13.473,15.343 12.828,15.343 1.145,0.374 	"/>
	<polygon clip-path="url(#XMLID_9_)" fill="#BA2025" points="2.438,0.374 14.121,15.343 13.473,15.343 1.789,0.374 	"/>
	<polygon clip-path="url(#XMLID_9_)" fill="#BB2025" points="3.086,0.374 14.766,15.343 14.121,15.343 2.438,0.374 	"/>
	<polygon clip-path="url(#XMLID_9_)" fill="#BC2025" points="3.73,0.374 15.344,15.253 15.344,15.265 15.246,15.343 14.766,15.343 
		3.086,0.374 	"/>
	<polygon clip-path="url(#XMLID_9_)" fill="#BD2025" points="4.379,0.374 15.344,14.425 15.344,15.253 3.73,0.374 	"/>
	<polygon clip-path="url(#XMLID_9_)" fill="#BF2025" points="5.023,0.374 15.344,13.597 15.344,14.425 4.379,0.374 	"/>
	<polygon clip-path="url(#XMLID_9_)" fill="#BF2026" points="5.672,0.374 15.344,12.769 15.344,13.597 5.023,0.374 	"/>
	<polygon clip-path="url(#XMLID_9_)" fill="#C02026" points="6.316,0.374 15.344,11.94 15.344,12.769 5.672,0.374 	"/>
	<polygon clip-path="url(#XMLID_9_)" fill="#C22026" points="6.965,0.374 15.344,11.112 15.344,11.94 6.316,0.374 	"/>
	<polygon clip-path="url(#XMLID_9_)" fill="#C22026" points="7.609,0.374 15.344,10.28 15.344,11.112 6.965,0.374 	"/>
	<polygon clip-path="url(#XMLID_9_)" fill="#C32026" points="8.258,0.374 15.344,9.452 15.344,10.28 7.609,0.374 	"/>
	<polygon clip-path="url(#XMLID_9_)" fill="#C42026" points="8.906,0.374 15.344,8.624 15.344,9.452 8.258,0.374 	"/>
	<polygon clip-path="url(#XMLID_9_)" fill="#C52026" points="9.551,0.374 15.344,7.796 15.344,8.624 8.906,0.374 	"/>
	<polygon clip-path="url(#XMLID_9_)" fill="#C52026" points="10.199,0.374 15.344,6.968 15.344,7.796 9.551,0.374 	"/>
	<polygon clip-path="url(#XMLID_9_)" fill="#C72026" points="10.844,0.374 15.344,6.14 15.344,6.968 10.199,0.374 	"/>
	<polygon clip-path="url(#XMLID_9_)" fill="#C72026" points="11.492,0.374 15.344,5.312 15.344,6.14 10.844,0.374 	"/>
	<polygon clip-path="url(#XMLID_9_)" fill="#C72027" points="12.141,0.374 15.344,4.483 15.344,5.312 11.492,0.374 	"/>
	<polygon clip-path="url(#XMLID_9_)" fill="#C82026" points="12.785,0.374 15.344,3.655 15.344,4.483 12.141,0.374 	"/>
	<polygon clip-path="url(#XMLID_9_)" fill="#C92027" points="13.434,0.374 15.344,2.823 15.344,3.655 12.785,0.374 	"/>
	<polygon clip-path="url(#XMLID_9_)" fill="#C92027" points="14.078,0.374 15.344,1.995 15.344,2.823 13.434,0.374 	"/>
	<polygon clip-path="url(#XMLID_9_)" fill="#C92027" points="15.344,1.995 14.078,0.374 15.344,0.374 	"/>
</g>
<path fill="#AEADAE" d="M14.97,7.859c0,3.92-3.189,7.108-7.11,7.108c-3.92,0-7.109-3.188-7.109-7.108S3.939,0.75,7.859,0.75
	C11.78,0.75,14.97,3.939,14.97,7.859z M7.859,0C3.525,0,0,3.525,0,7.859c0,4.333,3.525,7.858,7.859,7.858s7.86-3.525,7.86-7.858
	C15.72,3.525,12.193,0,7.859,0z"/>
<path fill="#FFFFFF" d="M5.378,4.932v-1h5.005v0.879c-0.352,0.375-0.858,0.924-1.518,2.135c-0.595,1.078-1.134,2.299-1.431,4.598
	H6.291c0.065-0.583,0.197-1.089,0.242-1.309C6.73,9.453,6.962,8.749,7.324,7.957C8.16,6.064,8.92,5.251,9.217,4.932H5.378z"/>
</svg>
