<?xml version="1.0" encoding="utf-8"?>
<!-- Generator: Adobe Illustrator 12.0.1, SVG Export Plug-In  -->
<!DOCTYPE svg PUBLIC "-//W3C//DTD SVG 1.1//EN" "http://www.w3.org/Graphics/SVG/1.1/DTD/svg11.dtd" [
	<!ENTITY ns_flows "http://ns.adobe.com/Flows/1.0/">
	<!ENTITY ns_svg "http://www.w3.org/2000/svg">
	<!ENTITY ns_xlink "http://www.w3.org/1999/xlink">
]>
<svg  version="1.1" xmlns="&ns_svg;" xmlns:xlink="&ns_xlink;" xmlns:a="http://ns.adobe.com/AdobeSVGViewerExtensions/3.0/"
	 width="16" height="17" viewBox="-0.229 -0.382 16 17" enable-background="new -0.229 -0.382 16 17" xml:space="preserve">
<defs>
</defs>
<g>
	<defs>
		<circle id="XMLID_6_" cx="7.86" cy="7.859" r="7.485"/>
	</defs>
	<clipPath id="XMLID_9_">
		<use xlink:href="#XMLID_6_" />
	</clipPath>
	<polygon clip-path="url(#XMLID_9_)" fill="#A61E22" points="0.375,11.393 4.133,15.342 0.375,15.342 	"/>
	<polygon clip-path="url(#XMLID_9_)" fill="#A61E22" points="0.375,10.588 4.898,15.342 4.133,15.342 0.375,11.393 	"/>
	<polygon clip-path="url(#XMLID_9_)" fill="#A81E22" points="0.375,9.783 5.664,15.342 4.898,15.342 0.375,10.588 	"/>
	<polygon clip-path="url(#XMLID_9_)" fill="#A91E22" points="0.375,8.979 6.43,15.342 5.664,15.342 0.375,9.783 	"/>
	<polygon clip-path="url(#XMLID_9_)" fill="#AA1E22" points="0.375,8.174 7.195,15.342 6.43,15.342 0.375,8.979 	"/>
	<polygon clip-path="url(#XMLID_9_)" fill="#AC1E23" points="0.375,7.369 7.961,15.342 7.195,15.342 0.375,8.174 	"/>
	<polygon clip-path="url(#XMLID_9_)" fill="#AD1E23" points="0.375,6.564 8.727,15.342 7.961,15.342 0.375,7.369 	"/>
	<polygon clip-path="url(#XMLID_9_)" fill="#AF1F23" points="0.375,5.76 9.492,15.342 8.727,15.342 0.375,6.564 	"/>
	<polygon clip-path="url(#XMLID_9_)" fill="#B01F23" points="0.375,4.955 10.258,15.342 9.492,15.342 0.375,5.76 	"/>
	<polygon clip-path="url(#XMLID_9_)" fill="#B11F24" points="0.375,4.15 11.023,15.342 10.258,15.342 0.375,4.955 	"/>
	<polygon clip-path="url(#XMLID_9_)" fill="#B31F24" points="0.375,3.346 11.789,15.342 11.023,15.342 0.375,4.15 	"/>
	<polygon clip-path="url(#XMLID_9_)" fill="#B41F24" points="0.375,2.541 12.555,15.342 11.789,15.342 0.375,3.346 	"/>
	<polygon clip-path="url(#XMLID_9_)" fill="#B51F24" points="0.375,1.736 13.32,15.342 12.555,15.342 0.375,2.541 	"/>
	<polygon clip-path="url(#XMLID_9_)" fill="#B61F24" points="0.375,0.932 14.086,15.342 13.32,15.342 0.375,1.736 	"/>
	<polygon clip-path="url(#XMLID_9_)" fill="#B82025" points="0.375,0.803 0.715,0.482 14.852,15.342 14.086,15.342 0.375,0.932 	"/>
	<polygon clip-path="url(#XMLID_9_)" fill="#B92025" points="0.715,0.482 0.824,0.377 1.379,0.377 15.273,14.982 14.895,15.342 
		14.852,15.342 	"/>
	<polygon clip-path="url(#XMLID_9_)" fill="#BA2025" points="2.145,0.377 15.344,14.252 15.344,14.916 15.273,14.982 1.379,0.377 	
		"/>
	<polygon clip-path="url(#XMLID_9_)" fill="#BB2025" points="2.91,0.377 15.344,13.447 15.344,14.252 2.145,0.377 	"/>
	<polygon clip-path="url(#XMLID_9_)" fill="#BC2025" points="3.676,0.377 15.344,12.643 15.344,13.447 2.91,0.377 	"/>
	<polygon clip-path="url(#XMLID_9_)" fill="#BD2025" points="4.441,0.377 15.344,11.838 15.344,12.643 3.676,0.377 	"/>
	<polygon clip-path="url(#XMLID_9_)" fill="#BF2025" points="5.207,0.377 15.344,11.033 15.344,11.838 4.441,0.377 	"/>
	<polygon clip-path="url(#XMLID_9_)" fill="#BF2026" points="5.973,0.377 15.344,10.229 15.344,11.033 5.207,0.377 	"/>
	<polygon clip-path="url(#XMLID_9_)" fill="#C02026" points="6.738,0.377 15.344,9.424 15.344,10.229 5.973,0.377 	"/>
	<polygon clip-path="url(#XMLID_9_)" fill="#C22026" points="7.504,0.377 15.344,8.619 15.344,9.424 6.738,0.377 	"/>
	<polygon clip-path="url(#XMLID_9_)" fill="#C22026" points="8.27,0.377 15.344,7.814 15.344,8.619 7.504,0.377 	"/>
	<polygon clip-path="url(#XMLID_9_)" fill="#C32026" points="9.035,0.377 15.344,7.01 15.344,7.814 8.27,0.377 	"/>
	<polygon clip-path="url(#XMLID_9_)" fill="#C42026" points="9.801,0.377 15.344,6.205 15.344,7.01 9.035,0.377 	"/>
	<polygon clip-path="url(#XMLID_9_)" fill="#C52026" points="10.566,0.377 15.344,5.4 15.344,6.205 9.801,0.377 	"/>
	<polygon clip-path="url(#XMLID_9_)" fill="#C52026" points="11.332,0.377 15.344,4.596 15.344,5.4 10.566,0.377 	"/>
	<polygon clip-path="url(#XMLID_9_)" fill="#C72026" points="12.098,0.377 15.344,3.791 15.344,4.596 11.332,0.377 	"/>
	<polygon clip-path="url(#XMLID_9_)" fill="#C72026" points="12.863,0.377 15.344,2.986 15.344,3.791 12.098,0.377 	"/>
	<polygon clip-path="url(#XMLID_9_)" fill="#C72027" points="13.629,0.377 15.344,2.178 15.344,2.986 12.863,0.377 	"/>
	<polygon clip-path="url(#XMLID_9_)" fill="#C82026" points="14.395,0.377 15.344,1.377 15.344,2.178 13.629,0.377 	"/>
	<polygon clip-path="url(#XMLID_9_)" fill="#C92027" points="15.16,0.377 15.344,0.568 15.344,1.377 14.395,0.377 	"/>
	<polygon clip-path="url(#XMLID_9_)" fill="#C92027" points="15.344,0.568 15.16,0.377 15.344,0.377 	"/>
</g>
<path fill="#AEADAE" d="M14.97,7.859c0,3.92-3.189,7.108-7.109,7.108c-3.921,0-7.11-3.188-7.11-7.108S3.939,0.75,7.86,0.75
	C11.78,0.75,14.97,3.939,14.97,7.859z M7.86,0C3.526,0,0,3.526,0,7.859s3.526,7.858,7.86,7.858c4.333,0,7.859-3.525,7.859-7.858
	S12.193,0,7.86,0z"/>
<path fill="#FFFFFF" d="M10.668,9.309c0,1.387-1,2.332-2.738,2.332c-1.551,0-2.85-0.748-2.85-2.354c0-0.44,0.1-1.022,0.639-1.528
	c0.33-0.297,0.594-0.385,0.77-0.451C6.346,7.253,6.125,7.153,5.906,6.923C5.609,6.604,5.443,6.13,5.443,5.69
	c0-0.594,0.286-1.154,0.781-1.508c0.583-0.418,1.32-0.439,1.661-0.439c2.409,0,2.497,1.783,2.497,1.992
	c0,0.406-0.154,1.166-1.045,1.572C9.701,7.483,10.668,7.956,10.668,9.309z M9.635,9.266c0-0.813-0.671-1.452-1.782-1.452
	c-0.979,0-1.728,0.539-1.728,1.464c0,0.812,0.605,1.451,1.75,1.451C9.359,10.729,9.635,9.727,9.635,9.266z M7.908,4.624
	c-0.275,0-0.506,0.021-0.715,0.098C6.609,4.942,6.445,5.394,6.445,5.778c0,0.584,0.406,1.154,1.44,1.154
	c1.353,0,1.452-0.9,1.452-1.166C9.338,5.284,9.062,4.624,7.908,4.624z"/>
</svg>
