<?xml version="1.0" encoding="utf-8"?>
<!-- Generator: Adobe Illustrator 15.0.0, SVG Export Plug-In . SVG Version: 6.00 Build 0)  -->
<!DOCTYPE svg PUBLIC "-//W3C//DTD SVG 1.1//EN" "http://www.w3.org/Graphics/SVG/1.1/DTD/svg11.dtd">
<svg version="1.1" xmlns="http://www.w3.org/2000/svg" xmlns:xlink="http://www.w3.org/1999/xlink" x="0px" y="0px" width="48px"
	 height="48px" viewBox="0 0 48 48" enable-background="new 0 0 48 48" xml:space="preserve">
<g id="Gradient_-_Red">
	<linearGradient id="SVGID_1_" gradientUnits="userSpaceOnUse" x1="23.9468" y1="7.6123" x2="23.9468" y2="39.9299">
		<stop  offset="0" style="stop-color:#FDE4E4"/>
		<stop  offset="0.1136" style="stop-color:#F3D2D2"/>
		<stop  offset="0.363" style="stop-color:#DFAEAE"/>
		<stop  offset="0.4969" style="stop-color:#D7A1A1"/>
		<stop  offset="0.6654" style="stop-color:#E2B4B4"/>
		<stop  offset="1" style="stop-color:#FDE4E4"/>
	</linearGradient>
	<circle fill="url(#SVGID_1_)" cx="23.947" cy="23.985" r="18"/>
</g>
<g id="throwing_x2F_end">
	<path fill="#751B28" d="M23.947,1.484c-12.407,0-22.5,10.094-22.5,22.5c0,12.407,10.093,22.5,22.5,22.5
		c12.406,0,22.501-10.094,22.501-22.5C46.448,11.578,36.354,1.484,23.947,1.484z M23.947,41.984c-9.941,0-18-8.061-18-18
		c0-9.941,8.059-18,18-18s18.001,8.059,18.001,18C41.948,33.924,33.889,41.984,23.947,41.984z"/>
</g>
<g id="message" display="none">
	<g display="inline">
		<polygon fill="#751B28" points="35.96,15.01 12.201,15.01 24.068,22.951 		"/>
		<path fill="#751B28" d="M24.484,24.477c-0.126,0.084-0.271,0.126-0.417,0.126s-0.29-0.043-0.416-0.127l-12.446-8.327v15.769
			c0,0.414,0.335,0.75,0.75,0.75h24.236c0.414,0,0.75-0.336,0.75-0.75V16.159L24.484,24.477z"/>
	</g>
</g>
<g id="escalation" display="none">
	<g display="inline">
		<polygon fill="#751B28" points="24.02,20.533 34.724,32.119 24.02,10.957 13.314,32.119 		"/>
	</g>
</g>
<g id="error" display="none">
	<g display="inline">
		<polygon fill="#751B28" points="12.594,33.18 19.681,16.641 25.83,26.092 33.854,14.278 26.768,31.754 20.631,23.728 		"/>
	</g>
</g>
<g id="cancel" display="none">
	<g display="inline">
		<polygon fill="#751B28" points="35.567,32.076 27.344,23.849 35.567,15.625 32.239,12.299 24.017,20.523 15.791,12.297 
			12.465,15.625 20.689,23.849 12.466,32.076 15.793,35.4 24.017,27.176 32.239,35.4 		"/>
	</g>
</g>
<g id="compensation" display="none">
	<g display="inline">
		<polygon fill="#751B28" points="21.817,32.246 11.451,23.699 21.817,15.15 		"/>
	</g>
	<g display="inline">
		<polygon fill="#751B28" points="33.657,32.246 23.291,23.699 33.657,15.15 		"/>
	</g>
</g>
<g id="signal" display="none">
	<polygon display="inline" fill="#751B28" points="12.328,31.248 23.99,11.051 35.652,31.248 	"/>
</g>
<g id="multiple" display="none">
	<polygon display="inline" fill="#751B28" points="16.619,34.127 12.063,20.109 23.989,11.444 35.914,20.109 31.36,34.127 	"/>
</g>
<g id="terminate">
	<circle fill="#751B28" cx="23.975" cy="23.969" r="11.156"/>
</g>
</svg>
