<?xml version="1.0" encoding="utf-8"?>
<!-- Generator: Adobe Illustrator 12.0.1, SVG Export Plug-In  -->
<!DOCTYPE svg PUBLIC "-//W3C//DTD SVG 1.1//EN" "http://www.w3.org/Graphics/SVG/1.1/DTD/svg11.dtd" [
	<!ENTITY ns_flows "http://ns.adobe.com/Flows/1.0/">
	<!ENTITY ns_svg "http://www.w3.org/2000/svg">
	<!ENTITY ns_xlink "http://www.w3.org/1999/xlink">
]>
<svg  version="1.1" xmlns="&ns_svg;" xmlns:xlink="&ns_xlink;" xmlns:a="http://ns.adobe.com/AdobeSVGViewerExtensions/3.0/"
	 width="16" height="17" viewBox="-0.229 -0.882 16 17" enable-background="new -0.229 -0.882 16 17" xml:space="preserve">
<defs>
</defs>
<g>
	<defs>
		<circle id="XMLID_6_" cx="7.859" cy="7.859" r="7.484"/>
	</defs>
	<clipPath id="XMLID_9_">
		<use xlink:href="#XMLID_6_" />
	</clipPath>
	<polygon clip-path="url(#XMLID_9_)" fill="#A61E22" points="0.375,11.256 3.531,15.342 0.375,15.342 	"/>
	<polygon clip-path="url(#XMLID_9_)" fill="#A61E22" points="0.375,10.365 4.223,15.342 3.531,15.342 0.375,11.256 	"/>
	<polygon clip-path="url(#XMLID_9_)" fill="#A81E22" points="0.375,9.471 4.91,15.342 4.223,15.342 0.375,10.365 	"/>
	<polygon clip-path="url(#XMLID_9_)" fill="#A91E22" points="0.375,8.58 5.602,15.342 4.91,15.342 0.375,9.471 	"/>
	<polygon clip-path="url(#XMLID_9_)" fill="#AA1E22" points="0.375,7.689 6.289,15.342 5.602,15.342 0.375,8.58 	"/>
	<polygon clip-path="url(#XMLID_9_)" fill="#AC1E23" points="0.375,6.799 6.977,15.342 6.289,15.342 0.375,7.689 	"/>
	<polygon clip-path="url(#XMLID_9_)" fill="#AD1E23" points="0.375,5.908 7.668,15.342 6.977,15.342 0.375,6.799 	"/>
	<polygon clip-path="url(#XMLID_9_)" fill="#AF1F23" points="0.375,5.018 8.355,15.342 7.668,15.342 0.375,5.908 	"/>
	<polygon clip-path="url(#XMLID_9_)" fill="#B01F23" points="0.375,4.123 9.047,15.342 8.355,15.342 0.375,5.018 	"/>
	<polygon clip-path="url(#XMLID_9_)" fill="#B11F24" points="0.375,3.232 9.734,15.342 9.047,15.342 0.375,4.123 	"/>
	<polygon clip-path="url(#XMLID_9_)" fill="#B31F24" points="0.375,2.338 10.422,15.342 9.734,15.342 0.375,3.232 	"/>
	<polygon clip-path="url(#XMLID_9_)" fill="#B41F24" points="0.375,1.447 11.113,15.342 10.422,15.342 0.375,2.338 	"/>
	<polygon clip-path="url(#XMLID_9_)" fill="#B51F24" points="0.375,0.557 11.801,15.342 11.113,15.342 0.375,1.447 	"/>
	<polygon clip-path="url(#XMLID_9_)" fill="#B61F24" points="0.375,0.439 0.457,0.377 0.922,0.377 12.492,15.342 11.801,15.342 
		0.375,0.557 	"/>
	<polygon clip-path="url(#XMLID_9_)" fill="#B82025" points="1.613,0.377 13.18,15.342 12.492,15.342 0.922,0.377 	"/>
	<polygon clip-path="url(#XMLID_9_)" fill="#B92025" points="2.301,0.377 13.867,15.342 13.18,15.342 1.613,0.377 	"/>
	<polygon clip-path="url(#XMLID_9_)" fill="#BA2025" points="2.992,0.377 14.559,15.342 13.867,15.342 2.301,0.377 	"/>
	<polygon clip-path="url(#XMLID_9_)" fill="#BB2025" points="3.68,0.377 15.246,15.342 14.559,15.342 2.992,0.377 	"/>
	<polygon clip-path="url(#XMLID_9_)" fill="#BC2025" points="4.367,0.377 15.344,14.58 15.344,15.283 15.266,15.342 15.246,15.342 
		3.68,0.377 	"/>
	<polygon clip-path="url(#XMLID_9_)" fill="#BD2025" points="5.059,0.377 15.344,13.686 15.344,14.58 4.367,0.377 	"/>
	<polygon clip-path="url(#XMLID_9_)" fill="#BF2025" points="5.746,0.377 15.344,12.795 15.344,13.686 5.059,0.377 	"/>
	<polygon clip-path="url(#XMLID_9_)" fill="#BF2026" points="6.434,0.377 15.344,11.904 15.344,12.795 5.746,0.377 	"/>
	<polygon clip-path="url(#XMLID_9_)" fill="#C02026" points="7.125,0.377 15.344,11.01 15.344,11.904 6.434,0.377 	"/>
	<polygon clip-path="url(#XMLID_9_)" fill="#C22026" points="7.812,0.377 15.344,10.119 15.344,11.01 7.125,0.377 	"/>
	<polygon clip-path="url(#XMLID_9_)" fill="#C22026" points="8.5,0.377 15.344,9.229 15.344,10.119 7.812,0.377 	"/>
	<polygon clip-path="url(#XMLID_9_)" fill="#C32026" points="9.191,0.377 15.344,8.338 15.344,9.229 8.5,0.377 	"/>
	<polygon clip-path="url(#XMLID_9_)" fill="#C42026" points="9.879,0.377 15.344,7.447 15.344,8.338 9.191,0.377 	"/>
	<polygon clip-path="url(#XMLID_9_)" fill="#C52026" points="10.57,0.377 15.344,6.553 15.344,7.447 9.879,0.377 	"/>
	<polygon clip-path="url(#XMLID_9_)" fill="#C52026" points="11.258,0.377 15.344,5.662 15.344,6.553 10.57,0.377 	"/>
	<polygon clip-path="url(#XMLID_9_)" fill="#C72026" points="11.945,0.377 15.344,4.771 15.344,5.662 11.258,0.377 	"/>
	<polygon clip-path="url(#XMLID_9_)" fill="#C72026" points="12.637,0.377 15.344,3.877 15.344,4.771 11.945,0.377 	"/>
	<polygon clip-path="url(#XMLID_9_)" fill="#C72027" points="13.324,0.377 15.344,2.986 15.344,3.877 12.637,0.377 	"/>
	<polygon clip-path="url(#XMLID_9_)" fill="#C82026" points="14.016,0.377 15.344,2.096 15.344,2.986 13.324,0.377 	"/>
	<polygon clip-path="url(#XMLID_9_)" fill="#C92027" points="14.703,0.377 15.344,1.205 15.344,2.096 14.016,0.377 	"/>
	<polygon clip-path="url(#XMLID_9_)" fill="#C92027" points="15.344,1.205 14.703,0.377 15.344,0.377 	"/>
</g>
<path fill="#AEADAE" d="M14.969,7.859c0,3.92-3.189,7.108-7.108,7.108c-3.921,0-7.11-3.188-7.11-7.108S3.939,0.75,7.86,0.75
	C11.779,0.75,14.969,3.939,14.969,7.859z M7.86,0C3.526,0,0,3.525,0,7.859c0,4.333,3.526,7.858,7.86,7.858
	c4.333,0,7.858-3.525,7.858-7.858C15.719,3.525,12.193,0,7.86,0z"/>
<path fill="#FFFFFF" d="M5.208,4.142v7.601H4.163V6.341H2.414V5.582c0.484-0.011,1.716-0.044,1.991-1.44H5.208z"/>
<path fill="#FFFFFF" d="M9.828,7.266c0.418,0.011,1.034,0.032,1.408-0.154c0.23-0.121,0.594-0.407,0.594-1.001
	c0-0.792-0.616-1.166-1.342-1.166c-0.539,0-0.892,0.187-1.089,0.363C8.981,5.682,8.926,6.265,8.904,6.528L7.892,6.462
	c0.066-0.77,0.309-1.43,0.902-1.914c0.319-0.253,0.869-0.527,1.716-0.527c1.661,0,2.376,1.045,2.376,2.035
	c0,0.462-0.165,0.901-0.439,1.198c-0.242,0.253-0.506,0.374-0.66,0.44c0.99,0.253,1.375,1.122,1.375,1.826s-0.341,1.375-0.869,1.771
	c-0.308,0.253-0.913,0.562-1.914,0.562c-0.418,0-1.188-0.044-1.837-0.539c-0.869-0.649-0.935-1.606-0.957-2.058l1.034-0.088
	c0,0.165,0.011,0.462,0.154,0.814c0.396,0.945,1.242,0.968,1.572,0.968c1.716,0,1.749-1.287,1.749-1.463
	c0-0.22-0.044-0.44-0.153-0.638c-0.363-0.639-1.134-0.672-1.617-0.672c-0.066,0-0.209,0-0.495,0.012V7.266z"/>
</svg>
