<?xml version="1.0" encoding="utf-8"?>
<!-- Generator: Adobe Illustrator 12.0.1, SVG Export Plug-In  -->
<!DOCTYPE svg PUBLIC "-//W3C//DTD SVG 1.1//EN" "http://www.w3.org/Graphics/SVG/1.1/DTD/svg11.dtd" [
	<!ENTITY ns_flows "http://ns.adobe.com/Flows/1.0/">
	<!ENTITY ns_svg "http://www.w3.org/2000/svg">
	<!ENTITY ns_xlink "http://www.w3.org/1999/xlink">
]>
<svg  version="1.1" xmlns="&ns_svg;" xmlns:xlink="&ns_xlink;" xmlns:a="http://ns.adobe.com/AdobeSVGViewerExtensions/3.0/"
	 width="16" height="17" viewBox="-0.229 -0.882 16 17" enable-background="new -0.229 -0.882 16 17" xml:space="preserve">
<defs>
</defs>
<g>
	<defs>
		<circle id="XMLID_1_" cx="7.86" cy="7.859" r="7.485"/>
	</defs>
	<clipPath id="XMLID_5_">
		<use xlink:href="#XMLID_1_" />
	</clipPath>
	<polygon clip-path="url(#XMLID_5_)" fill="#A61E22" points="0.375,10.303 4.555,15.342 0.375,15.342 	"/>
	<polygon clip-path="url(#XMLID_5_)" fill="#A61E22" points="0.375,9.486 5.23,15.342 4.555,15.342 0.375,10.303 	"/>
	<polygon clip-path="url(#XMLID_5_)" fill="#A81E22" points="0.375,8.67 5.91,15.342 5.23,15.342 0.375,9.486 	"/>
	<polygon clip-path="url(#XMLID_5_)" fill="#A91E22" points="0.375,7.85 6.59,15.342 5.91,15.342 0.375,8.67 	"/>
	<polygon clip-path="url(#XMLID_5_)" fill="#AA1E22" points="0.375,7.033 7.266,15.342 6.59,15.342 0.375,7.85 	"/>
	<polygon clip-path="url(#XMLID_5_)" fill="#AC1E23" points="0.375,6.213 7.945,15.342 7.266,15.342 0.375,7.033 	"/>
	<polygon clip-path="url(#XMLID_5_)" fill="#AD1E23" points="0.375,5.396 8.625,15.342 7.945,15.342 0.375,6.213 	"/>
	<polygon clip-path="url(#XMLID_5_)" fill="#AF1F23" points="0.375,4.58 9.301,15.342 8.625,15.342 0.375,5.396 	"/>
	<polygon clip-path="url(#XMLID_5_)" fill="#B01F23" points="0.375,3.76 9.98,15.342 9.301,15.342 0.375,4.58 	"/>
	<polygon clip-path="url(#XMLID_5_)" fill="#B11F24" points="0.375,2.943 10.66,15.342 9.98,15.342 0.375,3.76 	"/>
	<polygon clip-path="url(#XMLID_5_)" fill="#B31F24" points="0.375,2.123 11.336,15.342 10.66,15.342 0.375,2.943 	"/>
	<polygon clip-path="url(#XMLID_5_)" fill="#B41F24" points="0.375,1.307 12.016,15.342 11.336,15.342 0.375,2.123 	"/>
	<polygon clip-path="url(#XMLID_5_)" fill="#B51F24" points="0.375,0.557 0.406,0.529 12.695,15.342 12.016,15.342 0.375,1.307 	"/>
	<polygon clip-path="url(#XMLID_5_)" fill="#B61F24" points="0.406,0.529 0.594,0.377 0.961,0.377 13.371,15.342 12.695,15.342 	"/>
	<polygon clip-path="url(#XMLID_5_)" fill="#B82025" points="1.637,0.377 14.051,15.342 13.371,15.342 0.961,0.377 	"/>
	<polygon clip-path="url(#XMLID_5_)" fill="#B92025" points="2.316,0.377 14.73,15.342 14.051,15.342 1.637,0.377 	"/>
	<polygon clip-path="url(#XMLID_5_)" fill="#BA2025" points="2.996,0.377 15.293,15.205 15.125,15.342 14.73,15.342 2.316,0.377 	
		"/>
	<polygon clip-path="url(#XMLID_5_)" fill="#BB2025" points="3.672,0.377 15.344,14.447 15.344,15.162 15.293,15.205 2.996,0.377 	
		"/>
	<polygon clip-path="url(#XMLID_5_)" fill="#BC2025" points="4.352,0.377 15.344,13.631 15.344,14.447 3.672,0.377 	"/>
	<polygon clip-path="url(#XMLID_5_)" fill="#BD2025" points="5.031,0.377 15.344,12.814 15.344,13.631 4.352,0.377 	"/>
	<polygon clip-path="url(#XMLID_5_)" fill="#BF2025" points="5.707,0.377 15.344,11.994 15.344,12.814 5.031,0.377 	"/>
	<polygon clip-path="url(#XMLID_5_)" fill="#BF2026" points="6.387,0.377 15.344,11.178 15.344,11.994 5.707,0.377 	"/>
	<polygon clip-path="url(#XMLID_5_)" fill="#C02026" points="7.066,0.377 15.344,10.357 15.344,11.178 6.387,0.377 	"/>
	<polygon clip-path="url(#XMLID_5_)" fill="#C22026" points="7.742,0.377 15.344,9.541 15.344,10.357 7.066,0.377 	"/>
	<polygon clip-path="url(#XMLID_5_)" fill="#C22026" points="8.422,0.377 15.344,8.721 15.344,9.541 7.742,0.377 	"/>
	<polygon clip-path="url(#XMLID_5_)" fill="#C32026" points="9.102,0.377 15.344,7.904 15.344,8.721 8.422,0.377 	"/>
	<polygon clip-path="url(#XMLID_5_)" fill="#C42026" points="9.777,0.377 15.344,7.088 15.344,7.904 9.102,0.377 	"/>
	<polygon clip-path="url(#XMLID_5_)" fill="#C52026" points="10.457,0.377 15.344,6.268 15.344,7.088 9.777,0.377 	"/>
	<polygon clip-path="url(#XMLID_5_)" fill="#C52026" points="11.137,0.377 15.344,5.451 15.344,6.268 10.457,0.377 	"/>
	<polygon clip-path="url(#XMLID_5_)" fill="#C72026" points="11.812,0.377 15.344,4.631 15.344,5.451 11.137,0.377 	"/>
	<polygon clip-path="url(#XMLID_5_)" fill="#C72026" points="12.492,0.377 15.344,3.814 15.344,4.631 11.812,0.377 	"/>
	<polygon clip-path="url(#XMLID_5_)" fill="#C72027" points="13.172,0.377 15.344,2.998 15.344,3.814 12.492,0.377 	"/>
	<polygon clip-path="url(#XMLID_5_)" fill="#C82026" points="13.848,0.377 15.344,2.178 15.344,2.998 13.172,0.377 	"/>
	<polygon clip-path="url(#XMLID_5_)" fill="#C92027" points="14.527,0.377 15.344,1.361 15.344,2.178 13.848,0.377 	"/>
	<polygon clip-path="url(#XMLID_5_)" fill="#C92027" points="15.207,0.377 15.344,0.541 15.344,1.361 14.527,0.377 	"/>
	<polygon clip-path="url(#XMLID_5_)" fill="#C92027" points="15.344,0.541 15.207,0.377 15.344,0.377 	"/>
</g>
<path fill="#AEADAE" d="M14.97,7.859c0,3.919-3.189,7.108-7.11,7.108c-3.92,0-7.109-3.189-7.109-7.108
	c0-3.92,3.189-7.109,7.109-7.109C11.78,0.75,14.97,3.939,14.97,7.859z M7.859,0C3.525,0,0,3.526,0,7.859
	c0,4.333,3.525,7.858,7.859,7.858s7.86-3.525,7.86-7.858C15.72,3.526,12.193,0,7.859,0z"/>
<path fill="#FFFFFF" d="M7.236,7.065c0.418,0.011,1.034,0.033,1.408-0.154c0.23-0.121,0.594-0.407,0.594-1.001
	c0-0.792-0.615-1.166-1.342-1.166c-0.539,0-0.891,0.187-1.089,0.363C6.39,5.481,6.334,6.064,6.312,6.329L5.301,6.263
	c0.066-0.77,0.309-1.43,0.902-1.914C6.521,4.096,7.072,3.82,7.918,3.82c1.662,0,2.377,1.045,2.377,2.035
	c0,0.462-0.165,0.902-0.44,1.199c-0.241,0.253-0.506,0.374-0.659,0.44c0.989,0.253,1.375,1.122,1.375,1.826
	s-0.342,1.375-0.869,1.771c-0.309,0.254-0.914,0.562-1.914,0.562c-0.418,0-1.188-0.044-1.838-0.539
	C5.08,10.464,5.015,9.507,4.992,9.057l1.035-0.089c0,0.166,0.01,0.463,0.153,0.814c0.396,0.946,1.243,0.969,1.573,0.969
	c1.716,0,1.748-1.287,1.748-1.463c0-0.221-0.043-0.44-0.153-0.639C8.986,8.012,8.216,7.979,7.731,7.979
	c-0.065,0-0.209,0-0.495,0.011V7.065z"/>
</svg>
