<?xml version="1.0" encoding="utf-8"?>
<!-- Generator: Adobe Illustrator 12.0.1, SVG Export Plug-In  -->
<!DOCTYPE svg PUBLIC "-//W3C//DTD SVG 1.1//EN" "http://www.w3.org/Graphics/SVG/1.1/DTD/svg11.dtd" [
	<!ENTITY ns_flows "http://ns.adobe.com/Flows/1.0/">
	<!ENTITY ns_svg "http://www.w3.org/2000/svg">
	<!ENTITY ns_xlink "http://www.w3.org/1999/xlink">
]>
<svg  version="1.1" xmlns="&ns_svg;" xmlns:xlink="&ns_xlink;" xmlns:a="http://ns.adobe.com/AdobeSVGViewerExtensions/3.0/"
	 width="16" height="17" viewBox="-0.229 -0.582 16 17" enable-background="new -0.229 -0.582 16 17" xml:space="preserve">
<defs>
</defs>
<g>
	<defs>
		<circle id="XMLID_1_" cx="7.86" cy="7.858" r="7.485"/>
	</defs>
	<clipPath id="XMLID_5_">
		<use xlink:href="#XMLID_1_" />
	</clipPath>
	<polygon clip-path="url(#XMLID_5_)" fill="#A61E22" points="0.375,11.774 4.328,15.341 0.375,15.341 	"/>
	<polygon clip-path="url(#XMLID_5_)" fill="#A61E22" points="0.375,11.048 5.137,15.341 4.328,15.341 0.375,11.774 	"/>
	<polygon clip-path="url(#XMLID_5_)" fill="#A81E22" points="0.375,10.317 5.945,15.341 5.137,15.341 0.375,11.048 	"/>
	<polygon clip-path="url(#XMLID_5_)" fill="#A91E22" points="0.375,9.587 6.75,15.341 5.945,15.341 0.375,10.317 	"/>
	<polygon clip-path="url(#XMLID_5_)" fill="#AA1E22" points="0.375,8.856 7.559,15.341 6.75,15.341 0.375,9.587 	"/>
	<polygon clip-path="url(#XMLID_5_)" fill="#AC1E23" points="0.375,8.13 8.367,15.341 7.559,15.341 0.375,8.856 	"/>
	<polygon clip-path="url(#XMLID_5_)" fill="#AD1E23" points="0.375,7.399 9.176,15.341 8.367,15.341 0.375,8.13 	"/>
	<polygon clip-path="url(#XMLID_5_)" fill="#AF1F23" points="0.375,6.669 9.984,15.341 9.176,15.341 0.375,7.399 	"/>
	<polygon clip-path="url(#XMLID_5_)" fill="#B01F23" points="0.375,5.942 10.793,15.341 9.984,15.341 0.375,6.669 	"/>
	<polygon clip-path="url(#XMLID_5_)" fill="#B11F24" points="0.375,5.212 11.602,15.341 10.793,15.341 0.375,5.942 	"/>
	<polygon clip-path="url(#XMLID_5_)" fill="#B31F24" points="0.375,4.481 12.41,15.341 11.602,15.341 0.375,5.212 	"/>
	<polygon clip-path="url(#XMLID_5_)" fill="#B41F24" points="0.375,3.755 13.219,15.341 12.41,15.341 0.375,4.481 	"/>
	<polygon clip-path="url(#XMLID_5_)" fill="#B51F24" points="0.375,3.024 14.023,15.341 13.219,15.341 0.375,3.755 	"/>
	<polygon clip-path="url(#XMLID_5_)" fill="#B61F24" points="0.375,2.294 14.832,15.341 14.023,15.341 0.375,3.024 	"/>
	<polygon clip-path="url(#XMLID_5_)" fill="#B82025" points="0.375,1.567 15.297,15.032 15.016,15.341 14.832,15.341 0.375,2.294 	
		"/>
	<polygon clip-path="url(#XMLID_5_)" fill="#B92025" points="0.375,0.837 15.344,14.345 15.344,14.978 15.297,15.032 0.375,1.567 	
		"/>
	<polygon clip-path="url(#XMLID_5_)" fill="#BA2025" points="0.375,0.739 0.688,0.392 15.344,13.614 15.344,14.345 0.375,0.837 	"/>
	<polygon clip-path="url(#XMLID_5_)" fill="#BB2025" points="0.688,0.392 0.703,0.376 1.48,0.376 15.344,12.888 15.344,13.614 	"/>
	<polygon clip-path="url(#XMLID_5_)" fill="#BC2025" points="2.289,0.376 15.344,12.157 15.344,12.888 1.48,0.376 	"/>
	<polygon clip-path="url(#XMLID_5_)" fill="#BD2025" points="3.098,0.376 15.344,11.427 15.344,12.157 2.289,0.376 	"/>
	<polygon clip-path="url(#XMLID_5_)" fill="#BF2025" points="3.906,0.376 15.344,10.7 15.344,11.427 3.098,0.376 	"/>
	<polygon clip-path="url(#XMLID_5_)" fill="#BF2026" points="4.711,0.376 15.344,9.97 15.344,10.7 3.906,0.376 	"/>
	<polygon clip-path="url(#XMLID_5_)" fill="#C02026" points="5.523,0.376 15.344,9.239 15.344,9.97 4.711,0.376 	"/>
	<polygon clip-path="url(#XMLID_5_)" fill="#C22026" points="6.328,0.376 15.344,8.513 15.344,9.239 5.523,0.376 	"/>
	<polygon clip-path="url(#XMLID_5_)" fill="#C22026" points="7.137,0.376 15.344,7.782 15.344,8.513 6.328,0.376 	"/>
	<polygon clip-path="url(#XMLID_5_)" fill="#C32026" points="7.945,0.376 15.344,7.052 15.344,7.782 7.137,0.376 	"/>
	<polygon clip-path="url(#XMLID_5_)" fill="#C42026" points="8.754,0.376 15.344,6.325 15.344,7.052 7.945,0.376 	"/>
	<polygon clip-path="url(#XMLID_5_)" fill="#C52026" points="9.562,0.376 15.344,5.595 15.344,6.325 8.754,0.376 	"/>
	<polygon clip-path="url(#XMLID_5_)" fill="#C52026" points="10.371,0.376 15.344,4.864 15.344,5.595 9.562,0.376 	"/>
	<polygon clip-path="url(#XMLID_5_)" fill="#C72026" points="11.18,0.376 15.344,4.134 15.344,4.864 10.371,0.376 	"/>
	<polygon clip-path="url(#XMLID_5_)" fill="#C72026" points="11.984,0.376 15.344,3.407 15.344,4.134 11.18,0.376 	"/>
	<polygon clip-path="url(#XMLID_5_)" fill="#C72027" points="12.797,0.376 15.344,2.677 15.344,3.407 11.984,0.376 	"/>
	<polygon clip-path="url(#XMLID_5_)" fill="#C82026" points="13.602,0.376 15.344,1.946 15.344,2.677 12.797,0.376 	"/>
	<polygon clip-path="url(#XMLID_5_)" fill="#C92027" points="14.41,0.376 15.344,1.22 15.344,1.946 13.602,0.376 	"/>
	<polygon clip-path="url(#XMLID_5_)" fill="#C92027" points="15.219,0.376 15.344,0.489 15.344,1.22 14.41,0.376 	"/>
	<polygon clip-path="url(#XMLID_5_)" fill="#C92027" points="15.344,0.489 15.219,0.376 15.344,0.376 	"/>
</g>
<path fill="#AEADAE" d="M14.97,7.858c0,3.92-3.189,7.109-7.109,7.109c-3.921,0-7.11-3.189-7.11-7.109
	c0-3.919,3.189-7.108,7.11-7.108C11.78,0.75,14.97,3.939,14.97,7.858z M7.86,0C3.526,0,0,3.525,0,7.858s3.526,7.859,7.86,7.859
	c4.333,0,7.859-3.526,7.859-7.859S12.193,0,7.86,0z"/>
<path fill="#FFFFFF" d="M9.371,8.902h1.144v0.891H9.371v1.75H8.348v-1.75H5.025V8.737l3.531-4.807h0.814V8.902z M8.348,8.902
	l0.066-3.432L6.016,8.902H8.348z"/>
</svg>
