<?xml version="1.0" encoding="utf-8"?>
<!-- Generator: Adobe Illustrator 12.0.1, SVG Export Plug-In  -->
<!DOCTYPE svg PUBLIC "-//W3C//DTD SVG 1.1//EN" "http://www.w3.org/Graphics/SVG/1.1/DTD/svg11.dtd" [
	<!ENTITY ns_flows "http://ns.adobe.com/Flows/1.0/">
	<!ENTITY ns_svg "http://www.w3.org/2000/svg">
	<!ENTITY ns_xlink "http://www.w3.org/1999/xlink">
]>
<svg  version="1.1" xmlns="&ns_svg;" xmlns:xlink="&ns_xlink;" xmlns:a="http://ns.adobe.com/AdobeSVGViewerExtensions/3.0/"
	 width="16" height="17" viewBox="-0.229 -0.782 16 17" enable-background="new -0.229 -0.782 16 17" xml:space="preserve">
<defs>
</defs>
<g>
	<defs>
		<circle id="XMLID_6_" cx="7.859" cy="7.858" r="7.484"/>
	</defs>
	<clipPath id="XMLID_9_">
		<use xlink:href="#XMLID_6_" />
	</clipPath>
	<polygon clip-path="url(#XMLID_9_)" fill="#A61E22" points="0.375,13.375 2.148,15.344 0.375,15.344 	"/>
	<polygon clip-path="url(#XMLID_9_)" fill="#A61E22" points="0.375,12.57 2.879,15.344 2.148,15.344 0.375,13.375 	"/>
	<polygon clip-path="url(#XMLID_9_)" fill="#A81E22" points="0.375,11.762 3.605,15.344 2.879,15.344 0.375,12.57 	"/>
	<polygon clip-path="url(#XMLID_9_)" fill="#A91E22" points="0.375,10.953 4.336,15.344 3.605,15.344 0.375,11.762 	"/>
	<polygon clip-path="url(#XMLID_9_)" fill="#AA1E22" points="0.375,10.145 5.066,15.344 4.336,15.344 0.375,10.953 	"/>
	<polygon clip-path="url(#XMLID_9_)" fill="#AC1E23" points="0.375,9.336 5.797,15.344 5.066,15.344 0.375,10.145 	"/>
	<polygon clip-path="url(#XMLID_9_)" fill="#AD1E23" points="0.375,8.527 6.523,15.344 5.797,15.344 0.375,9.336 	"/>
	<polygon clip-path="url(#XMLID_9_)" fill="#AF1F23" points="0.375,7.719 7.254,15.344 6.523,15.344 0.375,8.527 	"/>
	<polygon clip-path="url(#XMLID_9_)" fill="#B01F23" points="0.375,6.914 7.984,15.344 7.254,15.344 0.375,7.719 	"/>
	<polygon clip-path="url(#XMLID_9_)" fill="#B11F24" points="0.375,6.105 8.711,15.344 7.984,15.344 0.375,6.914 	"/>
	<polygon clip-path="url(#XMLID_9_)" fill="#B31F24" points="0.375,5.297 9.441,15.344 8.711,15.344 0.375,6.105 	"/>
	<polygon clip-path="url(#XMLID_9_)" fill="#B41F24" points="0.375,4.488 10.172,15.344 9.441,15.344 0.375,5.297 	"/>
	<polygon clip-path="url(#XMLID_9_)" fill="#B51F24" points="0.375,3.68 10.898,15.344 10.172,15.344 0.375,4.488 	"/>
	<polygon clip-path="url(#XMLID_9_)" fill="#B61F24" points="0.375,2.871 11.629,15.344 10.898,15.344 0.375,3.68 	"/>
	<polygon clip-path="url(#XMLID_9_)" fill="#B82025" points="0.375,2.062 12.359,15.344 11.629,15.344 0.375,2.871 	"/>
	<polygon clip-path="url(#XMLID_9_)" fill="#B92025" points="0.375,1.254 13.086,15.344 12.359,15.344 0.375,2.062 	"/>
	<polygon clip-path="url(#XMLID_9_)" fill="#BA2025" points="0.375,0.703 0.504,0.59 13.816,15.344 13.086,15.344 0.375,1.254 	"/>
	<polygon clip-path="url(#XMLID_9_)" fill="#BB2025" points="0.504,0.59 0.742,0.375 1.039,0.375 14.547,15.344 13.816,15.344 	"/>
	<polygon clip-path="url(#XMLID_9_)" fill="#BC2025" points="1.77,0.375 15.145,15.195 14.98,15.344 14.547,15.344 1.039,0.375 	"/>
	<polygon clip-path="url(#XMLID_9_)" fill="#BD2025" points="2.496,0.375 15.344,14.609 15.344,15.016 15.145,15.195 1.77,0.375 	
		"/>
	<polygon clip-path="url(#XMLID_9_)" fill="#BF2025" points="3.227,0.375 15.344,13.805 15.344,14.609 2.496,0.375 	"/>
	<polygon clip-path="url(#XMLID_9_)" fill="#BF2026" points="3.957,0.375 15.344,12.992 15.344,13.805 3.227,0.375 	"/>
	<polygon clip-path="url(#XMLID_9_)" fill="#C02026" points="4.688,0.375 15.344,12.188 15.344,12.992 3.957,0.375 	"/>
	<polygon clip-path="url(#XMLID_9_)" fill="#C22026" points="5.414,0.375 15.344,11.375 15.344,12.188 4.688,0.375 	"/>
	<polygon clip-path="url(#XMLID_9_)" fill="#C22026" points="6.145,0.375 15.344,10.57 15.344,11.375 5.414,0.375 	"/>
	<polygon clip-path="url(#XMLID_9_)" fill="#C32026" points="6.875,0.375 15.344,9.762 15.344,10.57 6.145,0.375 	"/>
	<polygon clip-path="url(#XMLID_9_)" fill="#C42026" points="7.602,0.375 15.344,8.953 15.344,9.762 6.875,0.375 	"/>
	<polygon clip-path="url(#XMLID_9_)" fill="#C52026" points="8.332,0.375 15.344,8.145 15.344,8.953 7.602,0.375 	"/>
	<polygon clip-path="url(#XMLID_9_)" fill="#C52026" points="9.062,0.375 15.344,7.336 15.344,8.145 8.332,0.375 	"/>
	<polygon clip-path="url(#XMLID_9_)" fill="#C72026" points="9.789,0.375 15.344,6.527 15.344,7.336 9.062,0.375 	"/>
	<polygon clip-path="url(#XMLID_9_)" fill="#C72026" points="10.52,0.375 15.344,5.719 15.344,6.527 9.789,0.375 	"/>
	<polygon clip-path="url(#XMLID_9_)" fill="#C72027" points="11.25,0.375 15.344,4.914 15.344,5.719 10.52,0.375 	"/>
	<polygon clip-path="url(#XMLID_9_)" fill="#C82026" points="11.977,0.375 15.344,4.105 15.344,4.914 11.25,0.375 	"/>
	<polygon clip-path="url(#XMLID_9_)" fill="#C92027" points="12.707,0.375 15.344,3.297 15.344,4.105 11.977,0.375 	"/>
	<polygon clip-path="url(#XMLID_9_)" fill="#C92027" points="13.438,0.375 15.344,2.488 15.344,3.297 12.707,0.375 	"/>
	<polygon clip-path="url(#XMLID_9_)" fill="#C92027" points="15.344,2.484 13.438,0.375 15.344,0.375 	"/>
</g>
<path fill="#AEADAE" d="M14.969,7.858c0,3.92-3.189,7.109-7.109,7.109S0.75,11.778,0.75,7.858S3.939,0.75,7.859,0.75
	S14.969,3.938,14.969,7.858z M7.859,0C3.525,0,0,3.525,0,7.858c0,4.334,3.525,7.859,7.859,7.859s7.859-3.525,7.859-7.859
	C15.719,3.525,12.193,0,7.859,0z"/>
<path fill="#FFFFFF" d="M5.208,4.142v7.601H4.163V6.341H2.414V5.582c0.484-0.011,1.716-0.044,1.991-1.44H5.208z"/>
<path fill="#FFFFFF" d="M10.455,11.819c-0.627,0-1.562-0.144-2.211-1.199C7.76,9.817,7.683,8.783,7.683,7.958
	c0-0.495,0.022-0.968,0.11-1.43c0.341-1.87,1.518-2.563,2.739-2.563c0.429,0,0.857,0.089,1.231,0.275
	c1.122,0.605,1.485,1.947,1.485,3.575C13.249,8.541,13.249,11.819,10.455,11.819z M12.182,7.771c0-0.814-0.044-2.959-1.683-2.959
	c-0.297,0-0.594,0.088-0.825,0.242C8.948,5.549,8.75,6.649,8.75,7.925c0,0.804,0.044,3.025,1.727,3.025
	C12.028,10.95,12.182,9.091,12.182,7.771z"/>
</svg>
