<?xml version="1.0" encoding="utf-8"?>
<!-- Generator: Adobe Illustrator 12.0.1, SVG Export Plug-In  -->
<!DOCTYPE svg PUBLIC "-//W3C//DTD SVG 1.1//EN" "http://www.w3.org/Graphics/SVG/1.1/DTD/svg11.dtd" [
	<!ENTITY ns_flows "http://ns.adobe.com/Flows/1.0/">
	<!ENTITY ns_svg "http://www.w3.org/2000/svg">
	<!ENTITY ns_xlink "http://www.w3.org/1999/xlink">
]>
<svg  version="1.1" xmlns="&ns_svg;" xmlns:xlink="&ns_xlink;" xmlns:a="http://ns.adobe.com/AdobeSVGViewerExtensions/3.0/"
	 width="16" height="17" viewBox="-0.229 -0.481 16 17" enable-background="new -0.229 -0.481 16 17" xml:space="preserve">
<defs>
</defs>
<g>
	<defs>
		<circle id="XMLID_6_" cx="7.859" cy="7.859" r="7.484"/>
	</defs>
	<clipPath id="XMLID_9_">
		<use xlink:href="#XMLID_6_" />
	</clipPath>
	<polygon clip-path="url(#XMLID_9_)" fill="#A61E22" points="0.375,11.672 3.648,15.344 0.375,15.344 	"/>
	<polygon clip-path="url(#XMLID_9_)" fill="#A61E22" points="0.375,10.941 4.301,15.344 3.648,15.344 0.375,11.672 	"/>
	<polygon clip-path="url(#XMLID_9_)" fill="#A81E22" points="0.375,10.211 4.953,15.344 4.301,15.344 0.375,10.941 	"/>
	<polygon clip-path="url(#XMLID_9_)" fill="#A91E22" points="0.375,9.48 5.602,15.344 4.953,15.344 0.375,10.211 	"/>
	<polygon clip-path="url(#XMLID_9_)" fill="#AA1E22" points="0.375,8.75 6.254,15.344 5.602,15.344 0.375,9.48 	"/>
	<polygon clip-path="url(#XMLID_9_)" fill="#AC1E23" points="0.375,8.02 6.906,15.344 6.254,15.344 0.375,8.75 	"/>
	<polygon clip-path="url(#XMLID_9_)" fill="#AD1E23" points="0.375,7.293 7.555,15.344 6.906,15.344 0.375,8.02 	"/>
	<polygon clip-path="url(#XMLID_9_)" fill="#AF1F23" points="0.375,6.559 8.207,15.344 7.555,15.344 0.375,7.293 	"/>
	<polygon clip-path="url(#XMLID_9_)" fill="#B01F23" points="0.375,5.832 8.859,15.344 8.207,15.344 0.375,6.559 	"/>
	<polygon clip-path="url(#XMLID_9_)" fill="#B11F24" points="0.375,5.098 9.512,15.344 8.859,15.344 0.375,5.832 	"/>
	<polygon clip-path="url(#XMLID_9_)" fill="#B31F24" points="0.375,4.371 10.16,15.344 9.512,15.344 0.375,5.098 	"/>
	<polygon clip-path="url(#XMLID_9_)" fill="#B41F24" points="0.375,3.641 10.812,15.344 10.16,15.344 0.375,4.371 	"/>
	<polygon clip-path="url(#XMLID_9_)" fill="#B51F24" points="0.375,2.91 11.465,15.344 10.812,15.344 0.375,3.641 	"/>
	<polygon clip-path="url(#XMLID_9_)" fill="#B61F24" points="0.375,2.18 12.117,15.344 11.465,15.344 0.375,2.91 	"/>
	<polygon clip-path="url(#XMLID_9_)" fill="#B82025" points="0.375,1.449 12.766,15.344 12.117,15.344 0.375,2.18 	"/>
	<polygon clip-path="url(#XMLID_9_)" fill="#B92025" points="0.375,0.719 13.418,15.344 12.766,15.344 0.375,1.449 	"/>
	<polygon clip-path="url(#XMLID_9_)" fill="#BA2025" points="0.375,0.684 0.723,0.375 14.07,15.344 13.418,15.344 0.375,0.719 	"/>
	<polygon clip-path="url(#XMLID_9_)" fill="#BB2025" points="0.723,0.375 0.723,0.375 1.371,0.375 14.723,15.344 14.07,15.344 	"/>
	<polygon clip-path="url(#XMLID_9_)" fill="#BC2025" points="2.023,0.375 15.207,15.16 15,15.344 14.723,15.344 1.371,0.375 	"/>
	<polygon clip-path="url(#XMLID_9_)" fill="#BD2025" points="2.676,0.375 15.344,14.582 15.344,15.035 15.207,15.16 2.023,0.375 	
		"/>
	<polygon clip-path="url(#XMLID_9_)" fill="#BF2025" points="3.324,0.375 15.344,13.852 15.344,14.582 2.676,0.375 	"/>
	<polygon clip-path="url(#XMLID_9_)" fill="#BF2026" points="3.977,0.375 15.344,13.121 15.344,13.852 3.324,0.375 	"/>
	<polygon clip-path="url(#XMLID_9_)" fill="#C02026" points="4.629,0.375 15.344,12.391 15.344,13.121 3.977,0.375 	"/>
	<polygon clip-path="url(#XMLID_9_)" fill="#C22026" points="5.281,0.375 15.344,11.66 15.344,12.391 4.629,0.375 	"/>
	<polygon clip-path="url(#XMLID_9_)" fill="#C22026" points="5.93,0.375 15.344,10.93 15.344,11.66 5.281,0.375 	"/>
	<polygon clip-path="url(#XMLID_9_)" fill="#C32026" points="6.582,0.375 15.344,10.199 15.344,10.93 5.93,0.375 	"/>
	<polygon clip-path="url(#XMLID_9_)" fill="#C42026" points="7.234,0.375 15.344,9.469 15.344,10.199 6.582,0.375 	"/>
	<polygon clip-path="url(#XMLID_9_)" fill="#C52026" points="7.883,0.375 15.344,8.738 15.344,9.469 7.234,0.375 	"/>
	<polygon clip-path="url(#XMLID_9_)" fill="#C52026" points="8.535,0.375 15.344,8.008 15.344,8.738 7.883,0.375 	"/>
	<polygon clip-path="url(#XMLID_9_)" fill="#C72026" points="9.188,0.375 15.344,7.277 15.344,8.008 8.535,0.375 	"/>
	<polygon clip-path="url(#XMLID_9_)" fill="#C72026" points="9.84,0.375 15.344,6.547 15.344,7.277 9.188,0.375 	"/>
	<polygon clip-path="url(#XMLID_9_)" fill="#C72027" points="10.488,0.375 15.344,5.816 15.344,6.547 9.84,0.375 	"/>
	<polygon clip-path="url(#XMLID_9_)" fill="#C82026" points="11.141,0.375 15.344,5.09 15.344,5.816 10.488,0.375 	"/>
	<polygon clip-path="url(#XMLID_9_)" fill="#C92027" points="11.793,0.375 15.344,4.355 15.344,5.09 11.141,0.375 	"/>
	<polygon clip-path="url(#XMLID_9_)" fill="#C92027" points="12.445,0.375 15.344,3.625 15.344,4.355 11.793,0.375 	"/>
	<polygon clip-path="url(#XMLID_9_)" fill="#C92027" points="15.344,3.625 12.445,0.375 15.344,0.375 	"/>
</g>
<path fill="#AEADAE" d="M14.969,7.859c0,3.92-3.189,7.109-7.108,7.109c-3.921,0-7.11-3.189-7.11-7.109S3.939,0.75,7.86,0.75
	C11.779,0.75,14.969,3.939,14.969,7.859z M7.86,0C3.526,0,0,3.525,0,7.859s3.526,7.859,7.86,7.859c4.333,0,7.858-3.525,7.858-7.859
	S12.193,0,7.86,0z"/>
<path fill="#FFFFFF" d="M6.235,4.143v7.601H5.19V6.342H3.441V5.583c0.484-0.011,1.716-0.044,1.991-1.44H6.235z"/>
<path fill="#FFFFFF" d="M10.363,4.143v7.601H9.318V6.342H7.569V5.583c0.484-0.011,1.716-0.044,1.991-1.44H10.363z"/>
</svg>
