<?xml version="1.0" encoding="utf-8"?>
<!-- Generator: Adobe Illustrator 12.0.1, SVG Export Plug-In  -->
<!DOCTYPE svg PUBLIC "-//W3C//DTD SVG 1.1//EN" "http://www.w3.org/Graphics/SVG/1.1/DTD/svg11.dtd" [
	<!ENTITY ns_flows "http://ns.adobe.com/Flows/1.0/">
	<!ENTITY ns_svg "http://www.w3.org/2000/svg">
	<!ENTITY ns_xlink "http://www.w3.org/1999/xlink">
]>
<svg  version="1.1" xmlns="&ns_svg;" xmlns:xlink="&ns_xlink;" xmlns:a="http://ns.adobe.com/AdobeSVGViewerExtensions/3.0/"
	 width="16" height="16" viewBox="-0.229 -0.182 16 16" enable-background="new -0.229 -0.182 16 16" xml:space="preserve">
<defs>
</defs>
<g>
	<defs>
		<circle id="XMLID_1_" cx="7.859" cy="7.859" r="7.484"/>
	</defs>
	<clipPath id="XMLID_5_">
		<use xlink:href="#XMLID_1_" />
	</clipPath>
	<polygon clip-path="url(#XMLID_5_)" fill="#A61E22" points="0.375,10.569 4.891,15.343 0.375,15.343 	"/>
	<polygon clip-path="url(#XMLID_5_)" fill="#A61E22" points="0.375,9.839 5.582,15.343 4.895,15.343 0.375,10.565 	"/>
	<polygon clip-path="url(#XMLID_5_)" fill="#A81E22" points="0.375,9.112 6.266,15.343 5.582,15.343 0.375,9.839 	"/>
	<polygon clip-path="url(#XMLID_5_)" fill="#A91E22" points="0.375,8.386 6.957,15.343 6.266,15.343 0.375,9.112 	"/>
	<polygon clip-path="url(#XMLID_5_)" fill="#AA1E22" points="0.375,7.659 7.641,15.343 6.957,15.343 0.375,8.386 	"/>
	<polygon clip-path="url(#XMLID_5_)" fill="#AC1E23" points="0.375,6.933 8.332,15.343 7.641,15.343 0.375,7.659 	"/>
	<polygon clip-path="url(#XMLID_5_)" fill="#AD1E23" points="0.375,6.21 9.016,15.343 8.332,15.343 0.375,6.933 	"/>
	<polygon clip-path="url(#XMLID_5_)" fill="#AF1F23" points="0.375,5.479 9.703,15.343 9.016,15.343 0.375,6.21 	"/>
	<polygon clip-path="url(#XMLID_5_)" fill="#B01F23" points="0.375,4.753 10.391,15.343 9.703,15.343 0.375,5.479 	"/>
	<polygon clip-path="url(#XMLID_5_)" fill="#B11F24" points="0.375,4.026 11.078,15.343 10.391,15.343 0.375,4.753 	"/>
	<polygon clip-path="url(#XMLID_5_)" fill="#B31F24" points="0.375,3.3 11.766,15.343 11.078,15.343 0.375,4.026 	"/>
	<polygon clip-path="url(#XMLID_5_)" fill="#B41F24" points="0.375,2.573 12.453,15.343 11.766,15.343 0.375,3.3 	"/>
	<polygon clip-path="url(#XMLID_5_)" fill="#B51F24" points="0.375,1.847 13.141,15.343 12.453,15.343 0.375,2.573 	"/>
	<polygon clip-path="url(#XMLID_5_)" fill="#B61F24" points="0.375,1.12 13.828,15.343 13.141,15.343 0.375,1.847 	"/>
	<polygon clip-path="url(#XMLID_5_)" fill="#B82025" points="0.375,0.792 0.574,0.604 14.516,15.343 13.828,15.343 0.375,1.12 	"/>
	<polygon clip-path="url(#XMLID_5_)" fill="#B92025" points="0.574,0.604 0.816,0.374 1.043,0.374 15.062,15.194 14.902,15.343 
		14.516,15.343 	"/>
	<polygon clip-path="url(#XMLID_5_)" fill="#BA2025" points="1.73,0.374 15.344,14.765 15.344,14.925 15.062,15.194 1.043,0.374 	
		"/>
	<polygon clip-path="url(#XMLID_5_)" fill="#BB2025" points="2.418,0.374 15.344,14.038 15.344,14.765 1.73,0.374 	"/>
	<polygon clip-path="url(#XMLID_5_)" fill="#BC2025" points="3.105,0.374 15.344,13.312 15.344,14.038 2.418,0.374 	"/>
	<polygon clip-path="url(#XMLID_5_)" fill="#BD2025" points="3.793,0.374 15.344,12.585 15.344,13.312 3.105,0.374 	"/>
	<polygon clip-path="url(#XMLID_5_)" fill="#BF2025" points="4.48,0.374 15.344,11.858 15.344,12.585 3.793,0.374 	"/>
	<polygon clip-path="url(#XMLID_5_)" fill="#BF2026" points="5.168,0.374 15.344,11.132 15.344,11.858 4.48,0.374 	"/>
	<polygon clip-path="url(#XMLID_5_)" fill="#C02026" points="5.855,0.374 15.344,10.405 15.344,11.132 5.168,0.374 	"/>
	<polygon clip-path="url(#XMLID_5_)" fill="#C22026" points="6.543,0.374 15.344,9.679 15.344,10.405 5.855,0.374 	"/>
	<polygon clip-path="url(#XMLID_5_)" fill="#C22026" points="7.23,0.374 15.344,8.952 15.344,9.679 6.543,0.374 	"/>
	<polygon clip-path="url(#XMLID_5_)" fill="#C32026" points="7.918,0.374 15.344,8.226 15.344,8.952 7.23,0.374 	"/>
	<polygon clip-path="url(#XMLID_5_)" fill="#C42026" points="8.605,0.374 15.344,7.499 15.344,8.226 7.918,0.374 	"/>
	<polygon clip-path="url(#XMLID_5_)" fill="#C52026" points="9.293,0.374 15.344,6.772 15.344,7.499 8.605,0.374 	"/>
	<polygon clip-path="url(#XMLID_5_)" fill="#C52026" points="9.98,0.374 15.344,6.046 15.344,6.772 9.293,0.374 	"/>
	<polygon clip-path="url(#XMLID_5_)" fill="#C72026" points="10.668,0.374 15.344,5.319 15.344,6.046 9.98,0.374 	"/>
	<polygon clip-path="url(#XMLID_5_)" fill="#C72026" points="11.355,0.374 15.344,4.593 15.344,5.319 10.668,0.374 	"/>
	<polygon clip-path="url(#XMLID_5_)" fill="#C72027" points="12.043,0.374 15.344,3.866 15.344,4.593 11.355,0.374 	"/>
	<polygon clip-path="url(#XMLID_5_)" fill="#C82026" points="12.73,0.374 15.344,3.14 15.344,3.866 12.043,0.374 	"/>
	<polygon clip-path="url(#XMLID_5_)" fill="#C92027" points="13.418,0.374 15.344,2.413 15.344,3.14 12.73,0.374 	"/>
	<polygon clip-path="url(#XMLID_5_)" fill="#C92027" points="14.105,0.374 15.344,1.687 15.344,2.413 13.418,0.374 	"/>
	<polygon clip-path="url(#XMLID_5_)" fill="#C92027" points="15.344,1.687 14.105,0.374 15.344,0.374 	"/>
</g>
<path fill="#AEADAE" d="M14.969,7.859c0,3.92-3.189,7.108-7.109,7.108S0.75,11.779,0.75,7.859S3.939,0.75,7.859,0.75
	S14.969,3.939,14.969,7.859z M7.859,0C3.525,0,0,3.525,0,7.859c0,4.333,3.525,7.858,7.859,7.858s7.859-3.525,7.859-7.858
	C15.719,3.525,12.193,0,7.859,0z"/>
<path fill="#FFFFFF" d="M5.208,4.143v7.601H4.163V6.342H2.414V5.583c0.484-0.011,1.716-0.044,1.991-1.44H5.208z"/>
<path fill="#FFFFFF" d="M13.161,10.786v0.957H7.936v-1.056l0.177-0.154c0.253-0.231,0.506-0.462,0.759-0.682
	c0.264-0.242,0.55-0.474,0.813-0.704c1.441-1.222,2.189-1.893,2.189-2.882c0-0.275-0.099-1.31-1.397-1.31
	c-1.121,0-1.363,0.803-1.44,1.133C8.959,6.431,8.97,6.672,8.981,6.925L7.914,6.87c0-0.275,0-0.704,0.154-1.188
	c0.352-1.078,1.242-1.64,2.452-1.64c1.717,0,2.421,1.078,2.421,2.179c0,1.144-0.639,2.013-2.156,3.256
	c-0.265,0.209-0.518,0.418-0.781,0.627c-0.11,0.099-0.671,0.571-0.803,0.682H13.161z"/>
</svg>
