<?xml version="1.0" encoding="utf-8"?>
<!-- Generator: Adobe Illustrator 12.0.1, SVG Export Plug-In  -->
<!DOCTYPE svg PUBLIC "-//W3C//DTD SVG 1.1//EN" "http://www.w3.org/Graphics/SVG/1.1/DTD/svg11.dtd" [
	<!ENTITY ns_flows "http://ns.adobe.com/Flows/1.0/">
	<!ENTITY ns_svg "http://www.w3.org/2000/svg">
	<!ENTITY ns_xlink "http://www.w3.org/1999/xlink">
]>
<svg  version="1.1" xmlns="&ns_svg;" xmlns:xlink="&ns_xlink;" xmlns:a="http://ns.adobe.com/AdobeSVGViewerExtensions/3.0/"
	 width="16" height="17" viewBox="-0.229 -0.582 16 17" enable-background="new -0.229 -0.582 16 17" xml:space="preserve">
<defs>
</defs>
<g>
	<defs>
		<circle id="XMLID_6_" cx="7.859" cy="7.858" r="7.484"/>
	</defs>
	<clipPath id="XMLID_9_">
		<use xlink:href="#XMLID_6_" />
	</clipPath>
	<polygon clip-path="url(#XMLID_9_)" fill="#A61E22" points="0.375,10.845 4.645,15.341 0.375,15.341 	"/>
	<polygon clip-path="url(#XMLID_9_)" fill="#A61E22" points="0.375,10.079 5.371,15.341 4.645,15.341 0.375,10.845 	"/>
	<polygon clip-path="url(#XMLID_9_)" fill="#A81E22" points="0.375,9.313 6.094,15.341 5.371,15.341 0.375,10.079 	"/>
	<polygon clip-path="url(#XMLID_9_)" fill="#A91E22" points="0.375,8.548 6.824,15.341 6.094,15.341 0.375,9.313 	"/>
	<polygon clip-path="url(#XMLID_9_)" fill="#AA1E22" points="0.375,7.778 7.551,15.341 6.824,15.341 0.375,8.548 	"/>
	<polygon clip-path="url(#XMLID_9_)" fill="#AC1E23" points="0.375,7.013 8.277,15.341 7.551,15.341 0.375,7.778 	"/>
	<polygon clip-path="url(#XMLID_9_)" fill="#AD1E23" points="0.375,6.247 9.004,15.341 8.277,15.341 0.375,7.013 	"/>
	<polygon clip-path="url(#XMLID_9_)" fill="#AF1F23" points="0.375,5.481 9.73,15.341 9.004,15.341 0.375,6.247 	"/>
	<polygon clip-path="url(#XMLID_9_)" fill="#B01F23" points="0.375,4.716 10.453,15.341 9.73,15.341 0.375,5.481 	"/>
	<polygon clip-path="url(#XMLID_9_)" fill="#B11F24" points="0.375,3.95 11.184,15.341 10.453,15.341 0.375,4.716 	"/>
	<polygon clip-path="url(#XMLID_9_)" fill="#B31F24" points="0.375,3.185 11.906,15.341 11.184,15.341 0.375,3.95 	"/>
	<polygon clip-path="url(#XMLID_9_)" fill="#B41F24" points="0.375,2.419 12.637,15.341 11.906,15.341 0.375,3.185 	"/>
	<polygon clip-path="url(#XMLID_9_)" fill="#B51F24" points="0.375,1.653 13.359,15.341 12.637,15.341 0.375,2.419 	"/>
	<polygon clip-path="url(#XMLID_9_)" fill="#B61F24" points="0.375,0.888 14.086,15.341 13.359,15.341 0.375,1.653 	"/>
	<polygon clip-path="url(#XMLID_9_)" fill="#B82025" points="0.375,0.798 0.711,0.478 14.812,15.341 14.086,15.341 0.375,0.888 	"/>
	<polygon clip-path="url(#XMLID_9_)" fill="#B92025" points="0.711,0.478 0.82,0.376 1.34,0.376 15.238,15.024 14.898,15.341 
		14.812,15.341 	"/>
	<polygon clip-path="url(#XMLID_9_)" fill="#BA2025" points="2.066,0.376 15.344,14.368 15.344,14.923 15.238,15.024 1.34,0.376 	
		"/>
	<polygon clip-path="url(#XMLID_9_)" fill="#BB2025" points="2.793,0.376 15.344,13.603 15.344,14.368 2.066,0.376 	"/>
	<polygon clip-path="url(#XMLID_9_)" fill="#BC2025" points="3.52,0.376 15.344,12.837 15.344,13.603 2.793,0.376 	"/>
	<polygon clip-path="url(#XMLID_9_)" fill="#BD2025" points="4.246,0.376 15.344,12.071 15.344,12.837 3.52,0.376 	"/>
	<polygon clip-path="url(#XMLID_9_)" fill="#BF2025" points="4.973,0.376 15.344,11.306 15.344,12.071 4.246,0.376 	"/>
	<polygon clip-path="url(#XMLID_9_)" fill="#BF2026" points="5.699,0.376 15.344,10.54 15.344,11.306 4.973,0.376 	"/>
	<polygon clip-path="url(#XMLID_9_)" fill="#C02026" points="6.426,0.376 15.344,9.774 15.344,10.54 5.699,0.376 	"/>
	<polygon clip-path="url(#XMLID_9_)" fill="#C22026" points="7.152,0.376 15.344,9.009 15.344,9.774 6.426,0.376 	"/>
	<polygon clip-path="url(#XMLID_9_)" fill="#C22026" points="7.879,0.376 15.344,8.243 15.344,9.009 7.152,0.376 	"/>
	<polygon clip-path="url(#XMLID_9_)" fill="#C32026" points="8.605,0.376 15.344,7.478 15.344,8.243 7.879,0.376 	"/>
	<polygon clip-path="url(#XMLID_9_)" fill="#C42026" points="9.332,0.376 15.344,6.712 15.344,7.478 8.605,0.376 	"/>
	<polygon clip-path="url(#XMLID_9_)" fill="#C52026" points="10.059,0.376 15.344,5.946 15.344,6.712 9.332,0.376 	"/>
	<polygon clip-path="url(#XMLID_9_)" fill="#C52026" points="10.785,0.376 15.344,5.181 15.344,5.946 10.059,0.376 	"/>
	<polygon clip-path="url(#XMLID_9_)" fill="#C72026" points="11.512,0.376 15.344,4.415 15.344,5.181 10.785,0.376 	"/>
	<polygon clip-path="url(#XMLID_9_)" fill="#C72026" points="12.238,0.376 15.344,3.649 15.344,4.415 11.512,0.376 	"/>
	<polygon clip-path="url(#XMLID_9_)" fill="#C72027" points="12.965,0.376 15.344,2.884 15.344,3.649 12.238,0.376 	"/>
	<polygon clip-path="url(#XMLID_9_)" fill="#C82026" points="13.691,0.376 15.344,2.118 15.344,2.884 12.965,0.376 	"/>
	<polygon clip-path="url(#XMLID_9_)" fill="#C92027" points="14.418,0.376 15.344,1.353 15.344,2.118 13.691,0.376 	"/>
	<polygon clip-path="url(#XMLID_9_)" fill="#C92027" points="15.145,0.376 15.344,0.587 15.344,1.353 14.418,0.376 	"/>
	<polygon clip-path="url(#XMLID_9_)" fill="#C92027" points="15.344,0.587 15.145,0.376 15.344,0.376 	"/>
</g>
<path fill="#AEADAE" d="M14.969,7.858c0,3.92-3.189,7.109-7.109,7.109S0.75,11.778,0.75,7.858S3.939,0.75,7.859,0.75
	S14.969,3.938,14.969,7.858z M7.859,0C3.525,0,0,3.525,0,7.858c0,4.334,3.525,7.859,7.859,7.859s7.859-3.525,7.859-7.859
	C15.719,3.525,12.193,0,7.859,0z"/>
<path fill="#FFFFFF" d="M5.208,4.142v7.601H4.163V6.341H2.414V5.582c0.484-0.011,1.716-0.044,1.991-1.44H5.208z"/>
<path fill="#FFFFFF" d="M11.962,9.103h1.144v0.891h-1.144v1.749h-1.022V9.993H7.617V8.938l3.531-4.808h0.813V9.103z M10.939,9.103
	l0.065-3.433L8.607,9.103H10.939z"/>
</svg>
