<?xml version="1.0" encoding="utf-8"?>
<!-- Generator: Adobe Illustrator 12.0.1, SVG Export Plug-In  -->
<!DOCTYPE svg PUBLIC "-//W3C//DTD SVG 1.1//EN" "http://www.w3.org/Graphics/SVG/1.1/DTD/svg11.dtd" [
	<!ENTITY ns_flows "http://ns.adobe.com/Flows/1.0/">
	<!ENTITY ns_svg "http://www.w3.org/2000/svg">
	<!ENTITY ns_xlink "http://www.w3.org/1999/xlink">
]>
<svg  version="1.1" xmlns="&ns_svg;" xmlns:xlink="&ns_xlink;" xmlns:a="http://ns.adobe.com/AdobeSVGViewerExtensions/3.0/"
	 width="16" height="16" viewBox="-0.229 -0.182 16 16" enable-background="new -0.229 -0.182 16 16" xml:space="preserve">
<defs>
</defs>
<g>
	<defs>
		<circle id="XMLID_6_" cx="7.86" cy="7.859" r="7.485"/>
	</defs>
	<clipPath id="XMLID_9_">
		<use xlink:href="#XMLID_6_" />
	</clipPath>
	<polygon clip-path="url(#XMLID_9_)" fill="#A61E22" points="0.375,9.866 4.789,15.343 0.375,15.343 	"/>
	<polygon clip-path="url(#XMLID_9_)" fill="#A61E22" points="0.375,9.144 5.371,15.343 4.789,15.343 0.375,9.866 	"/>
	<polygon clip-path="url(#XMLID_9_)" fill="#A81E22" points="0.375,8.421 5.953,15.343 5.371,15.343 0.375,9.144 	"/>
	<polygon clip-path="url(#XMLID_9_)" fill="#A91E22" points="0.375,7.698 6.535,15.343 5.953,15.343 0.375,8.421 	"/>
	<polygon clip-path="url(#XMLID_9_)" fill="#AA1E22" points="0.375,6.976 7.117,15.343 6.535,15.343 0.375,7.698 	"/>
	<polygon clip-path="url(#XMLID_9_)" fill="#AC1E23" points="0.375,6.253 7.699,15.343 7.117,15.343 0.375,6.976 	"/>
	<polygon clip-path="url(#XMLID_9_)" fill="#AD1E23" points="0.375,5.53 8.281,15.343 7.699,15.343 0.375,6.253 	"/>
	<polygon clip-path="url(#XMLID_9_)" fill="#AF1F23" points="0.375,4.808 8.863,15.343 8.281,15.343 0.375,5.53 	"/>
	<polygon clip-path="url(#XMLID_9_)" fill="#B01F23" points="0.375,4.085 9.445,15.343 8.863,15.343 0.375,4.808 	"/>
	<polygon clip-path="url(#XMLID_9_)" fill="#B11F24" points="0.375,3.362 10.027,15.343 9.445,15.343 0.375,4.085 	"/>
	<polygon clip-path="url(#XMLID_9_)" fill="#B31F24" points="0.375,2.64 10.609,15.343 10.027,15.343 0.375,3.362 	"/>
	<polygon clip-path="url(#XMLID_9_)" fill="#B41F24" points="0.375,1.917 11.191,15.343 10.609,15.343 0.375,2.64 	"/>
	<polygon clip-path="url(#XMLID_9_)" fill="#B51F24" points="0.375,1.194 11.773,15.343 11.191,15.343 0.375,1.917 	"/>
	<polygon clip-path="url(#XMLID_9_)" fill="#B61F24" points="0.375,0.507 0.391,0.491 12.352,15.343 11.773,15.343 0.375,1.194 	"/>
	<polygon clip-path="url(#XMLID_9_)" fill="#B82025" points="0.391,0.491 0.539,0.374 0.879,0.374 12.938,15.343 12.352,15.343 	"/>
	<polygon clip-path="url(#XMLID_9_)" fill="#B92025" points="1.461,0.374 13.52,15.343 12.938,15.343 0.879,0.374 	"/>
	<polygon clip-path="url(#XMLID_9_)" fill="#BA2025" points="2.043,0.374 14.102,15.343 13.52,15.343 1.461,0.374 	"/>
	<polygon clip-path="url(#XMLID_9_)" fill="#BB2025" points="2.625,0.374 14.684,15.343 14.102,15.343 2.043,0.374 	"/>
	<polygon clip-path="url(#XMLID_9_)" fill="#BC2025" points="3.207,0.374 15.23,15.304 15.184,15.343 14.684,15.343 2.625,0.374 	
		"/>
	<polygon clip-path="url(#XMLID_9_)" fill="#BD2025" points="3.789,0.374 15.344,14.722 15.344,15.21 15.23,15.304 3.207,0.374 	"/>
	<polygon clip-path="url(#XMLID_9_)" fill="#BF2025" points="4.371,0.374 15.344,13.999 15.344,14.722 3.789,0.374 	"/>
	<polygon clip-path="url(#XMLID_9_)" fill="#BF2026" points="4.953,0.374 15.344,13.276 15.344,13.999 4.371,0.374 	"/>
	<polygon clip-path="url(#XMLID_9_)" fill="#C02026" points="5.535,0.374 15.344,12.554 15.344,13.276 4.953,0.374 	"/>
	<polygon clip-path="url(#XMLID_9_)" fill="#C22026" points="6.117,0.374 15.344,11.831 15.344,12.554 5.535,0.374 	"/>
	<polygon clip-path="url(#XMLID_9_)" fill="#C22026" points="6.699,0.374 15.344,11.108 15.344,11.831 6.117,0.374 	"/>
	<polygon clip-path="url(#XMLID_9_)" fill="#C32026" points="7.281,0.374 15.344,10.386 15.344,11.108 6.699,0.374 	"/>
	<polygon clip-path="url(#XMLID_9_)" fill="#C42026" points="7.863,0.374 15.344,9.663 15.344,10.386 7.281,0.374 	"/>
	<polygon clip-path="url(#XMLID_9_)" fill="#C52026" points="8.445,0.374 15.344,8.94 15.344,9.663 7.863,0.374 	"/>
	<polygon clip-path="url(#XMLID_9_)" fill="#C52026" points="9.027,0.374 15.344,8.218 15.344,8.94 8.445,0.374 	"/>
	<polygon clip-path="url(#XMLID_9_)" fill="#C72026" points="9.609,0.374 15.344,7.495 15.344,8.218 9.027,0.374 	"/>
	<polygon clip-path="url(#XMLID_9_)" fill="#C72026" points="10.191,0.374 15.344,6.772 15.344,7.495 9.609,0.374 	"/>
	<polygon clip-path="url(#XMLID_9_)" fill="#C72027" points="10.773,0.374 15.344,6.05 15.344,6.772 10.191,0.374 	"/>
	<polygon clip-path="url(#XMLID_9_)" fill="#C82026" points="11.352,0.374 15.344,5.327 15.344,6.05 10.773,0.374 	"/>
	<polygon clip-path="url(#XMLID_9_)" fill="#C92027" points="11.938,0.374 15.344,4.608 15.344,5.327 11.352,0.374 	"/>
	<polygon clip-path="url(#XMLID_9_)" fill="#C92027" points="12.52,0.374 15.344,3.882 15.344,4.608 11.938,0.374 	"/>
	<polygon clip-path="url(#XMLID_9_)" fill="#C92027" points="15.344,3.882 12.52,0.374 15.344,0.374 	"/>
</g>
<path fill="#AEADAE" d="M14.97,7.859c0,3.92-3.189,7.108-7.109,7.108c-3.921,0-7.11-3.188-7.11-7.108S3.939,0.75,7.86,0.75
	C11.78,0.75,14.97,3.939,14.97,7.859z M7.86,0C3.526,0,0,3.526,0,7.859c0,4.333,3.526,7.858,7.86,7.858
	c4.333,0,7.859-3.525,7.859-7.858C15.72,3.526,12.193,0,7.86,0z"/>
<path fill="#FFFFFF" d="M10.57,10.586v0.957H5.345v-1.057l0.176-0.153c0.253-0.231,0.507-0.462,0.759-0.683
	C6.543,9.409,6.83,9.178,7.094,8.947c1.441-1.221,2.189-1.892,2.189-2.882c0-0.275-0.1-1.309-1.397-1.309
	c-1.122,0-1.364,0.803-1.44,1.133C6.367,6.23,6.379,6.472,6.39,6.725L5.322,6.67c0-0.275,0-0.704,0.154-1.188
	C5.828,4.404,6.72,3.843,7.93,3.843c1.716,0,2.42,1.078,2.42,2.178c0,1.144-0.639,2.013-2.156,3.256
	C7.93,9.486,7.677,9.695,7.412,9.904c-0.109,0.099-0.67,0.572-0.803,0.682H10.57z"/>
</svg>
